<?xml version="1.0" standalone="no"?>
<!DOCTYPE svg PUBLIC "-//W3C//DTD SVG 20010904//EN"
 "http://www.w3.org/TR/2001/REC-SVG-20010904/DTD/svg10.dtd">
<svg version="1.0" xmlns="http://www.w3.org/2000/svg"
 width="432.000000pt" height="390.000000pt" viewBox="0 0 432.000000 390.000000"
 preserveAspectRatio="xMidYMid meet">

<g transform="translate(0.000000,390.000000) scale(0.100000,-0.100000)"
fill="#000000" stroke="none">
<path d="M1898 3405 c-330 -41 -674 -151 -944 -302 -78 -43 -106 -64 -111 -82
-10 -42 6 -580 22 -731 28 -264 70 -462 147 -698 22 -68 38 -126 35 -128 -2
-3 -56 -18 -118 -34 -128 -33 -128 -34 9 -19 579 62 1198 506 1477 1057 25 51
45 100 43 108 -2 8 -36 30 -75 47 -40 18 -73 36 -74 41 0 5 125 82 278 171
l278 163 7 -27 c12 -45 58 -433 60 -508 1 -40 4 -71 6 -68 2 2 19 59 37 127
18 68 40 143 50 168 10 28 19 90 22 167 l6 122 31 3 c24 2 30 7 28 22 -2 10 1
15 7 12 5 -4 12 3 16 14 3 11 10 20 15 20 16 0 81 62 77 74 -2 6 8 22 22 36
13 14 21 19 17 13 -5 -9 -2 -11 10 -6 12 4 15 3 10 -5 -5 -8 -1 -10 11 -5 23
9 -76 54 -265 122 -150 53 -301 91 -462 116 -145 23 -530 29 -672 10z"/>
<path d="M2723 2327 c-215 -321 -528 -593 -878 -762 -217 -105 -393 -154 -687
-193 l-57 -7 49 -97 c68 -133 106 -193 115 -179 4 7 -1 23 -9 36 -16 24 -16
25 9 25 29 0 58 23 47 35 -4 5 -1 5 6 1 17 -10 104 64 143 120 16 24 38 44 47
45 11 1 8 4 -8 9 -23 7 -23 8 -4 9 34 2 190 48 294 88 112 42 253 112 366 180
257 156 568 452 655 624 18 36 42 67 60 78 l30 19 -54 31 c-30 17 -56 31 -58
31 -2 -1 -32 -42 -66 -93z"/>
</g>
</svg>
