<?xml version="1.0" standalone="no"?>
<!DOCTYPE svg PUBLIC "-//W3C//DTD SVG 20010904//EN"
 "http://www.w3.org/TR/2001/REC-SVG-20010904/DTD/svg10.dtd">
<svg version="1.0" xmlns="http://www.w3.org/2000/svg"
 width="962.000000pt" height="820.000000pt" viewBox="0 0 962.000000 820.000000"
 preserveAspectRatio="xMidYMid meet">

<g transform="translate(0.000000,820.000000) scale(0.100000,-0.100000)"
fill="#000000" stroke="none">
<path d="M1150 7670 c-11 -11 -20 -27 -20 -35 0 -11 -12 -15 -50 -15 l-50 0 0
-515 0 -515 -70 0 -70 0 2 -292 3 -293 603 -3 602 -2 0 119 0 119 699 7 699 7
378 -126 379 -126 375 125 375 125 842 0 842 0 3 -157 3 -158 293 -3 292 -2
-2 -962 -3 -961 -370 -124 -370 -123 -777 0 -777 0 -3 138 -3 137 -107 3 -108
3 0 129 0 130 43 0 c36 0 47 -5 65 -30 15 -20 31 -30 48 -30 32 0 74 42 74 74
0 29 -42 66 -76 66 -27 0 -64 -32 -64 -55 0 -11 -12 -15 -50 -15 l-50 0 0
-135 0 -135 -65 0 -65 0 0 225 0 225 43 0 c36 0 47 -5 65 -30 15 -20 31 -30
48 -30 32 0 74 42 74 74 0 29 -42 66 -76 66 -27 0 -64 -32 -64 -55 0 -11 -12
-15 -50 -15 l-50 0 0 -230 0 -230 -65 0 -65 0 0 320 0 320 43 0 c36 0 47 -5
65 -30 15 -20 31 -30 48 -30 32 0 74 42 74 74 0 29 -42 66 -76 66 -27 0 -64
-32 -64 -55 0 -11 -12 -15 -50 -15 l-50 0 0 -325 0 -325 -65 0 -65 0 0 415 0
415 43 0 c36 0 47 -5 65 -30 15 -20 31 -30 48 -30 32 0 74 42 74 74 0 29 -42
66 -76 66 -27 0 -64 -32 -64 -55 0 -11 -12 -15 -50 -15 l-50 0 0 -420 0 -420
-65 0 -65 0 0 510 0 510 43 0 c36 0 47 -5 65 -30 15 -20 31 -30 48 -30 32 0
74 42 74 74 0 29 -42 66 -76 66 -27 0 -64 -32 -64 -55 0 -11 -12 -15 -50 -15
l-50 0 0 -515 0 -515 -65 0 -65 0 0 605 0 605 41 0 c32 0 47 -6 65 -25 28 -30
67 -32 94 -5 40 40 11 110 -45 110 -28 0 -65 -32 -65 -55 0 -11 -12 -15 -50
-15 l-50 0 0 -610 0 -610 -140 0 -140 0 0 -145 0 -145 -753 0 -752 0 -375 125
-375 125 -378 -126 c-208 -69 -376 -128 -374 -130 2 -3 170 -60 373 -128 l369
-123 3 -701 2 -702 -305 0 -305 0 2 -292 3 -293 603 -3 602 -2 0 150 0 150
793 0 792 0 375 -125 375 -125 375 125 375 125 687 0 687 0 3 -142 3 -143 903
-3 902 -2 -2 292 -3 293 -902 3 -903 2 0 -145 0 -145 -688 0 -687 0 -375 125
-375 125 -375 -125 -375 -125 -792 0 -792 0 -3 138 -3 137 -293 3 -292 2 2
702 3 701 370 124 370 123 752 0 752 0 3 -142 3 -143 603 -3 602 -2 0 150 0
150 778 0 777 0 375 -125 375 -125 378 126 c208 69 376 128 374 130 -2 3 -170
60 -373 128 l-369 123 -3 961 -2 962 305 0 305 0 -2 293 -3 292 -317 3 -318 2
0 130 0 130 43 0 c36 0 47 -5 65 -30 15 -20 31 -30 48 -30 32 0 74 42 74 74 0
29 -42 66 -76 66 -27 0 -64 -32 -64 -55 0 -11 -12 -15 -50 -15 l-50 0 0 -135
0 -135 -65 0 -65 0 0 225 0 225 43 0 c36 0 47 -5 65 -30 15 -20 31 -30 48 -30
32 0 74 42 74 74 0 29 -42 66 -76 66 -27 0 -64 -32 -64 -55 0 -11 -12 -15 -50
-15 l-50 0 0 -230 0 -230 -65 0 -65 0 0 320 0 320 43 0 c36 0 47 -5 65 -30 15
-20 31 -30 48 -30 32 0 74 42 74 74 0 29 -42 66 -76 66 -27 0 -64 -32 -64 -55
0 -11 -12 -15 -50 -15 l-50 0 0 -325 0 -325 -65 0 -65 0 0 415 0 415 41 0 c32
0 47 -6 65 -25 28 -30 67 -32 94 -5 40 40 11 110 -45 110 -28 0 -65 -32 -65
-55 0 -11 -12 -15 -50 -15 l-50 0 0 -420 0 -420 -70 0 -70 0 0 -130 0 -130
-843 0 -842 0 -375 125 -375 125 -375 -124 -375 -125 -702 -7 -703 -6 -2 168
-3 169 -247 3 -248 2 0 130 0 130 43 0 c36 0 47 -5 65 -30 15 -20 31 -30 48
-30 32 0 74 42 74 74 0 29 -42 66 -76 66 -27 0 -64 -32 -64 -55 0 -11 -12 -15
-50 -15 l-50 0 0 -135 0 -135 -65 0 -65 0 0 225 0 225 43 0 c36 0 47 -5 65
-30 15 -20 31 -30 48 -30 32 0 74 42 74 74 0 29 -42 66 -76 66 -27 0 -64 -32
-64 -55 0 -11 -12 -15 -50 -15 l-50 0 0 -230 0 -230 -65 0 -65 0 0 320 0 320
43 0 c36 0 47 -5 65 -30 15 -20 31 -30 48 -30 32 0 74 42 74 74 0 29 -42 66
-76 66 -27 0 -64 -32 -64 -55 0 -11 -12 -15 -50 -15 l-50 0 0 -325 0 -325 -65
0 -65 0 0 415 0 415 43 0 c36 0 47 -5 65 -30 15 -20 31 -30 48 -30 32 0 74 42
74 74 0 29 -42 66 -76 66 -27 0 -64 -32 -64 -55 0 -11 -12 -15 -50 -15 l-50 0
0 -420 0 -420 -65 0 -65 0 0 510 0 510 41 0 c32 0 47 -6 65 -25 28 -30 67 -32
94 -5 40 40 11 110 -45 110 -14 0 -34 -9 -45 -20z m228 -196 c28 -19 28 -51 0
-81 -27 -29 -62 -29 -82 -1 -44 63 19 126 82 82z m140 -190 c28 -19 28 -51 0
-81 -27 -29 -62 -29 -82 -1 -44 63 19 126 82 82z m5660 -70 c28 -19 28 -51 0
-81 -27 -29 -62 -29 -82 -1 -44 63 19 126 82 82z m-5520 -120 c28 -19 28 -51
0 -81 -27 -29 -62 -29 -82 -1 -44 63 19 126 82 82z m5660 -70 c28 -19 28 -51
0 -81 -27 -29 -62 -29 -82 -1 -44 63 19 126 82 82z m-5520 -120 c28 -19 28
-51 0 -81 -27 -29 -62 -29 -82 -1 -44 63 19 126 82 82z m5660 -70 c28 -19 28
-51 0 -81 -27 -29 -62 -29 -82 -1 -44 63 19 126 82 82z m-5378 -534 l0 -280
-590 0 -590 0 0 280 0 280 590 0 590 0 0 -280z m5800 -70 l0 -280 -590 0 -590
0 0 280 0 280 590 0 590 0 0 -280z m-3262 149 c200 -67 361 -123 359 -125 -2
-3 -166 -59 -363 -124 l-359 -120 -363 121 c-200 67 -361 123 -359 125 4 4
703 241 717 243 3 1 168 -53 368 -120z m-220 -1265 c28 -19 28 -51 0 -81 -27
-29 -62 -29 -82 -1 -44 63 19 126 82 82z m140 -190 c28 -19 28 -51 0 -81 -27
-29 -62 -29 -82 -1 -44 63 19 126 82 82z m140 -190 c28 -19 28 -51 0 -81 -27
-29 -62 -29 -82 -1 -44 63 19 126 82 82z m140 -190 c28 -19 28 -51 0 -81 -27
-29 -62 -29 -82 -1 -44 63 19 126 82 82z m140 -190 c28 -19 28 -51 0 -81 -27
-29 -62 -29 -82 -1 -44 63 19 126 82 82z m2 -604 l0 -280 -590 0 -590 0 0 280
0 280 590 0 590 0 0 -280z m2688 129 c200 -67 361 -123 359 -125 -2 -3 -166
-59 -363 -124 l-359 -120 -363 121 c-200 67 -361 123 -359 125 4 4 703 241
717 243 3 1 168 -53 368 -120z m-5770 -10 c200 -67 361 -123 359 -125 -2 -3
-166 -59 -363 -124 l-359 -120 -363 121 c-200 67 -361 123 -359 125 4 4 703
241 717 243 3 1 168 -53 368 -120z m6482 -2059 l0 -280 -890 0 -890 0 0 280 0
280 890 0 890 0 0 -280z m-6270 -10 l0 -280 -590 0 -590 0 0 280 0 280 590 0
590 0 0 -280z m2718 129 c200 -67 361 -123 359 -125 -2 -3 -166 -59 -363 -124
l-359 -120 -363 121 c-200 67 -361 123 -359 125 4 4 703 241 717 243 3 1 168
-53 368 -120z"/>
<path d="M1272 6338 c-27 -27 -7 -78 29 -78 10 0 21 4 24 10 4 6 -4 9 -17 7
-19 -2 -23 3 -23 28 0 25 4 30 23 28 13 -2 21 1 17 7 -8 14 -38 13 -53 -2z"/>
<path d="M1340 6305 c0 -25 5 -45 10 -45 6 0 10 20 10 45 0 25 -4 45 -10 45
-5 0 -10 -20 -10 -45z"/>
<path d="M1543 6339 c-12 -12 -2 -71 12 -76 9 -3 12 74 3 83 -2 2 -9 -1 -15
-7z"/>
<path d="M1370 6295 c0 -19 5 -35 10 -35 6 0 10 16 10 35 0 19 -4 35 -10 35
-5 0 -10 -16 -10 -35z"/>
<path d="M1404 6306 c-3 -14 -3 -30 1 -35 8 -14 42 -14 51 0 4 8 0 9 -15 4
-12 -4 -21 -2 -21 4 0 6 9 11 21 11 28 0 21 34 -8 38 -17 3 -24 -3 -29 -22z
m36 4 c0 -5 -4 -10 -10 -10 -5 0 -10 5 -10 10 0 6 5 10 10 10 6 0 10 -4 10
-10z"/>
<path d="M1470 6294 c0 -19 5 -34 10 -34 6 0 10 11 10 24 0 14 5 28 10 31 6 4
10 -7 10 -24 0 -17 5 -31 11 -31 6 0 9 14 7 32 -3 28 -7 33 -30 35 -26 2 -28
-1 -28 -33z"/>
<path d="M1584 6306 c-3 -14 -3 -30 1 -35 8 -14 42 -14 51 0 4 8 0 9 -15 4
-12 -4 -21 -2 -21 4 0 6 9 11 21 11 28 0 21 34 -8 38 -17 3 -24 -3 -29 -22z
m36 4 c0 -5 -4 -10 -10 -10 -5 0 -10 5 -10 10 0 6 5 10 10 10 6 0 10 -4 10
-10z"/>
<path d="M1654 6319 c-4 -7 4 -20 17 -31 l24 -19 -24 6 c-16 5 -21 4 -17 -4 9
-14 43 -14 52 0 4 7 -4 20 -17 31 l-24 19 24 -6 c16 -5 21 -4 17 4 -9 14 -43
14 -52 0z"/>
<path d="M7077 6235 c8 -25 21 -45 28 -45 7 0 20 20 28 45 18 51 4 62 -16 13
l-13 -33 -12 33 c-6 17 -15 32 -21 32 -6 0 -3 -19 6 -45z"/>
<path d="M7329 6263 c-1 -10 -1 -25 0 -35 1 -9 -3 -20 -10 -24 -8 -5 -10 2 -7
25 3 20 1 30 -6 28 -6 -2 -11 -17 -11 -33 0 -24 4 -29 28 -31 26 -2 27 0 27
43 0 41 -19 65 -21 27z"/>
<path d="M7154 6236 c-3 -14 -3 -30 1 -35 8 -14 42 -14 51 0 4 8 0 9 -15 4
-12 -4 -21 -2 -21 4 0 6 9 11 21 11 28 0 21 34 -8 38 -17 3 -24 -3 -29 -22z
m36 4 c0 -5 -4 -10 -10 -10 -5 0 -10 5 -10 10 0 6 5 10 10 10 6 0 10 -4 10
-10z"/>
<path d="M7220 6224 c0 -19 5 -34 10 -34 6 0 10 11 10 24 0 14 5 28 10 31 6 4
10 -7 10 -24 0 -17 5 -31 11 -31 6 0 9 14 7 32 -3 28 -7 33 -30 35 -26 2 -28
-1 -28 -33z"/>
<path d="M7366 6252 c-4 -6 3 -8 16 -5 23 6 23 6 -1 -14 -28 -23 -21 -43 15
-43 22 0 25 4 22 33 -2 24 -8 33 -25 35 -11 2 -24 -1 -27 -6z m30 -49 c-10
-10 -19 5 -10 18 6 11 8 11 12 0 2 -7 1 -15 -2 -18z"/>
<path d="M7434 6249 c-4 -7 4 -20 17 -31 l24 -19 -24 6 c-16 5 -21 4 -17 -4 9
-14 43 -14 52 0 4 7 -4 20 -17 31 l-24 19 24 -6 c16 -5 21 -4 17 4 -9 14 -43
14 -52 0z"/>
<path d="M4045 6261 c-3 -10 -3 -26 1 -35 7 -18 39 -22 50 -5 4 8 0 9 -15 4
-18 -5 -21 -2 -21 20 0 22 3 25 21 20 15 -5 19 -4 15 4 -11 18 -44 13 -51 -8z"/>
<path d="M4114 6256 c-7 -28 1 -46 20 -46 21 0 38 27 31 50 -9 28 -43 26 -51
-4z m36 -11 c0 -14 -4 -25 -10 -25 -5 0 -10 11 -10 25 0 14 5 25 10 25 6 0 10
-11 10 -25z"/>
<path d="M4180 6244 c0 -19 5 -34 10 -34 6 0 10 11 10 24 0 14 5 28 10 31 6 4
10 -7 10 -24 0 -17 5 -31 10 -31 6 0 10 11 10 24 0 14 5 28 10 31 6 4 10 -7
10 -24 0 -17 5 -31 11 -31 6 0 9 14 7 32 -3 31 -5 33 -50 34 l-48 2 0 -34z"/>
<path d="M4290 6234 c0 -24 5 -44 10 -44 10 0 14 19 11 52 -1 9 3 20 10 24 8
5 10 -2 7 -25 -3 -20 -1 -30 6 -28 6 2 11 17 11 33 0 24 -4 29 -27 31 -27 2
-28 0 -28 -43z"/>
<path d="M4360 6245 c0 -19 5 -35 10 -35 6 0 10 13 10 29 0 16 6 32 13 34 6 3
2 6 -10 6 -20 1 -23 -4 -23 -34z"/>
<path d="M4416 6272 c-4 -6 3 -8 16 -5 23 6 23 6 -1 -14 -28 -23 -21 -43 15
-43 22 0 25 4 22 33 -2 24 -8 33 -25 35 -11 2 -24 -1 -27 -6z m30 -49 c-10
-10 -19 5 -10 18 6 11 8 11 12 0 2 -7 1 -15 -2 -18z"/>
<path d="M4070 3755 c0 -51 19 -62 21 -12 l1 32 7 -29 c3 -16 11 -31 16 -33 8
-2 10 25 6 81 -1 5 -8 3 -16 -4 -10 -9 -15 -9 -15 -1 0 6 -4 11 -10 11 -5 0
-10 -20 -10 -45z"/>
<path d="M4327 3755 c8 -25 21 -45 28 -45 7 0 20 20 28 45 18 51 4 62 -16 13
l-13 -33 -12 33 c-6 17 -15 32 -21 32 -6 0 -3 -19 6 -45z"/>
<path d="M4579 3783 c-1 -10 -1 -25 0 -35 1 -9 -3 -20 -10 -24 -8 -5 -10 2 -7
25 3 20 1 30 -6 28 -6 -2 -11 -17 -11 -33 0 -24 4 -29 28 -31 26 -2 27 0 27
43 0 41 -19 65 -21 27z"/>
<path d="M4144 3756 c-3 -14 -3 -30 1 -35 8 -14 42 -14 51 0 4 8 0 9 -15 4
-12 -4 -21 -2 -21 4 0 6 9 11 21 11 28 0 21 34 -8 38 -17 3 -24 -3 -29 -22z
m36 4 c0 -5 -4 -10 -10 -10 -5 0 -10 5 -10 10 0 6 5 10 10 10 6 0 10 -4 10
-10z"/>
<path d="M4210 3744 c0 -19 5 -34 10 -34 6 0 10 11 10 24 0 14 5 28 10 31 6 4
10 -7 10 -24 0 -17 5 -31 10 -31 6 0 10 11 10 24 0 14 5 28 10 31 6 4 10 -7
10 -24 0 -17 5 -31 11 -31 6 0 9 14 7 32 -3 31 -5 33 -50 34 l-48 2 0 -34z"/>
<path d="M4404 3756 c-3 -14 -3 -30 1 -35 8 -14 42 -14 51 0 4 8 0 9 -15 4
-12 -4 -21 -2 -21 4 0 6 9 11 21 11 28 0 21 34 -8 38 -17 3 -24 -3 -29 -22z
m36 4 c0 -5 -4 -10 -10 -10 -5 0 -10 5 -10 10 0 6 5 10 10 10 6 0 10 -4 10
-10z"/>
<path d="M4470 3744 c0 -19 5 -34 10 -34 6 0 10 11 10 24 0 14 5 28 10 31 6 4
10 -7 10 -24 0 -17 5 -31 11 -31 6 0 9 14 7 32 -3 28 -7 33 -30 35 -26 2 -28
-1 -28 -33z"/>
<path d="M4616 3772 c-4 -6 3 -8 16 -5 23 6 23 6 -1 -14 -28 -23 -21 -43 15
-43 22 0 25 4 22 33 -2 24 -8 33 -25 35 -11 2 -24 -1 -27 -6z m30 -49 c-10
-10 -19 5 -10 18 6 11 8 11 12 0 2 -7 1 -15 -2 -18z"/>
<path d="M7100 3734 c0 -24 5 -44 10 -44 10 0 14 19 11 52 -1 9 3 20 10 24 8
5 10 -2 7 -25 -3 -20 -1 -30 6 -28 6 2 11 17 11 33 0 24 -4 29 -27 31 -27 2
-28 0 -28 -43z"/>
<path d="M7174 3756 c-7 -28 1 -46 20 -46 21 0 38 27 31 50 -9 28 -43 26 -51
-4z m36 -11 c0 -14 -4 -25 -10 -25 -5 0 -10 11 -10 25 0 14 5 25 10 25 6 0 10
-11 10 -25z"/>
<path d="M7244 3769 c-4 -7 4 -20 17 -31 l24 -19 -24 6 c-16 5 -21 4 -17 -4 9
-14 43 -14 52 0 4 7 -4 20 -17 31 l-24 19 24 -6 c16 -5 21 -4 17 4 -9 14 -43
14 -52 0z"/>
<path d="M7314 3769 c-4 -7 4 -20 17 -31 l24 -19 -24 6 c-16 5 -21 4 -17 -4 9
-14 43 -14 52 0 4 7 -4 20 -17 31 l-24 19 24 -6 c16 -5 21 -4 17 4 -9 14 -43
14 -52 0z"/>
<path d="M7382 3748 c3 -28 7 -33 31 -35 25 -2 27 1 27 33 0 19 -4 34 -10 34
-5 0 -10 -11 -10 -24 0 -14 -4 -28 -10 -31 -6 -4 -10 7 -10 24 0 17 -5 31 -11
31 -6 0 -9 -14 -7 -32z"/>
<path d="M7450 3745 c0 -19 5 -35 10 -35 6 0 10 16 10 35 0 19 -4 35 -10 35
-5 0 -10 -16 -10 -35z"/>
<path d="M1330 3724 c0 -24 5 -44 10 -44 10 0 14 19 11 52 -1 9 3 20 10 24 8
5 10 -2 7 -25 -3 -20 -1 -30 6 -28 6 2 11 17 11 33 0 24 -4 29 -27 31 -27 2
-28 0 -28 -43z"/>
<path d="M1404 3746 c-7 -28 1 -46 20 -46 21 0 38 27 31 50 -9 28 -43 26 -51
-4z m36 -11 c0 -14 -4 -25 -10 -25 -5 0 -10 11 -10 25 0 14 5 25 10 25 6 0 10
-11 10 -25z"/>
<path d="M1474 3759 c-4 -7 4 -20 17 -31 l24 -19 -24 6 c-16 5 -21 4 -17 -4 9
-14 43 -14 52 0 4 7 -4 20 -17 31 l-24 19 24 -6 c16 -5 21 -4 17 4 -9 14 -43
14 -52 0z"/>
<path d="M1544 3759 c-4 -7 4 -20 17 -31 l24 -19 -24 6 c-16 5 -21 4 -17 -4 9
-14 43 -14 52 0 4 7 -4 20 -17 31 l-24 19 24 -6 c16 -5 21 -4 17 4 -9 14 -43
14 -52 0z"/>
<path d="M1612 3738 c3 -28 7 -33 31 -35 25 -2 27 1 27 33 0 19 -4 34 -10 34
-5 0 -10 -11 -10 -24 0 -14 -4 -28 -10 -31 -6 -4 -10 7 -10 24 0 17 -5 31 -11
31 -6 0 -9 -14 -7 -32z"/>
<path d="M1680 3735 c0 -19 5 -35 10 -35 6 0 10 16 10 35 0 19 -4 35 -10 35
-5 0 -10 -16 -10 -35z"/>
<path d="M6830 1815 c0 -48 19 -64 21 -17 1 25 1 26 7 4 4 -13 12 -23 17 -23
6 0 13 10 17 23 6 22 6 21 7 -4 2 -47 21 -31 21 17 0 52 -22 63 -37 18 l-10
-28 -6 28 c-12 46 -37 34 -37 -18z"/>
<path d="M7343 1849 c-12 -12 -2 -71 12 -76 9 -3 12 74 3 83 -2 2 -9 -1 -15
-7z"/>
<path d="M7660 1815 c0 -44 0 -45 33 -44 23 1 26 3 10 6 -13 2 -23 11 -23 18
0 7 10 16 23 18 l22 4 -22 2 c-13 0 -23 7 -23 15 0 8 10 17 23 19 16 3 13 5
-10 6 -33 1 -33 0 -33 -44z"/>
<path d="M7801 1847 c-6 -8 -22 -12 -35 -10 -35 7 -43 -16 -15 -39 l24 -19
-24 6 c-16 5 -21 4 -17 -4 9 -14 43 -14 52 0 4 7 -4 20 -17 30 l-24 19 25 -3
c17 -1 27 -9 30 -26 8 -41 25 -34 23 10 -1 47 -6 55 -22 36z"/>
<path d="M6934 1816 c-7 -28 1 -46 20 -46 21 0 38 27 31 50 -9 28 -43 26 -51
-4z m36 -11 c0 -14 -4 -25 -10 -25 -5 0 -10 11 -10 25 0 14 5 25 10 25 6 0 10
-11 10 -25z"/>
<path d="M6990 1836 c0 -1 5 -17 11 -35 14 -38 34 -40 47 -3 l10 27 1 -27 c1
-41 21 -34 21 7 0 28 -4 35 -19 35 -12 0 -23 -9 -27 -22 l-7 -23 -10 23 c-8
18 -27 31 -27 18z"/>
<path d="M7090 1804 c0 -19 5 -34 10 -34 6 0 10 11 10 24 0 14 5 28 10 31 6 4
10 -7 10 -24 0 -17 5 -31 10 -31 6 0 10 11 10 24 0 14 5 28 10 31 6 4 10 -7
10 -24 0 -17 5 -31 11 -31 6 0 9 14 7 32 -3 31 -5 33 -50 34 l-48 2 0 -34z"/>
<path d="M7204 1816 c-3 -14 -3 -30 1 -35 8 -14 42 -14 51 0 4 8 0 9 -15 4
-12 -4 -21 -2 -21 4 0 6 9 11 21 11 28 0 21 34 -8 38 -17 3 -24 -3 -29 -22z
m36 4 c0 -5 -4 -10 -10 -10 -5 0 -10 5 -10 10 0 6 5 10 10 10 6 0 10 -4 10
-10z"/>
<path d="M7270 1804 c0 -19 5 -34 10 -34 6 0 10 11 10 24 0 14 5 28 10 31 6 4
10 -7 10 -24 0 -17 5 -31 11 -31 6 0 9 14 7 32 -3 28 -7 33 -30 35 -26 2 -28
-1 -28 -33z"/>
<path d="M7386 1832 c-4 -6 3 -8 16 -5 23 6 23 6 -1 -14 -28 -23 -21 -43 15
-43 22 0 25 4 22 33 -2 24 -8 33 -25 35 -11 2 -24 -1 -27 -6z m30 -49 c-10
-10 -19 5 -10 18 6 11 8 11 12 0 2 -7 1 -15 -2 -18z"/>
<path d="M7455 1821 c-3 -10 -3 -26 1 -35 7 -18 39 -22 50 -5 4 8 0 9 -15 4
-18 -5 -21 -2 -21 20 0 22 3 25 21 20 15 -5 19 -4 15 4 -11 18 -44 13 -51 -8z"/>
<path d="M7526 1832 c-4 -6 3 -8 16 -5 23 6 23 6 -1 -14 -28 -23 -21 -43 15
-43 22 0 25 4 22 33 -2 24 -8 33 -25 35 -11 2 -24 -1 -27 -6z m30 -49 c-10
-10 -19 5 -10 18 6 11 8 11 12 0 2 -7 1 -15 -2 -18z"/>
<path d="M7594 1816 c-7 -28 1 -46 20 -46 21 0 38 27 31 50 -9 28 -43 26 -51
-4z m36 -11 c0 -14 -4 -25 -10 -25 -5 0 -10 11 -10 25 0 14 5 25 10 25 6 0 10
-11 10 -25z"/>
<path d="M7844 1816 c-7 -28 1 -46 20 -46 21 0 38 27 31 50 -9 28 -43 26 -51
-4z m36 -11 c0 -14 -4 -25 -10 -25 -5 0 -10 11 -10 25 0 14 5 25 10 25 6 0 10
-11 10 -25z"/>
<path d="M7913 1824 c-7 -18 0 -47 13 -51 7 -2 9 8 6 28 -3 23 -1 30 7 25 7
-4 11 -15 10 -24 -3 -33 1 -52 11 -52 6 0 10 20 10 44 0 40 -2 44 -26 44 -14
0 -28 -6 -31 -14z"/>
<path d="M7982 1808 c3 -28 7 -33 31 -35 25 -2 27 1 27 33 0 19 -4 34 -10 34
-5 0 -10 -11 -10 -24 0 -14 -4 -28 -10 -31 -6 -4 -10 7 -10 24 0 17 -5 31 -11
31 -6 0 -9 -14 -7 -32z"/>
<path d="M8054 1816 c-3 -14 -3 -30 1 -35 8 -14 42 -14 51 0 4 8 0 9 -15 4
-12 -4 -21 -2 -21 4 0 6 9 11 21 11 28 0 21 34 -8 38 -17 3 -24 -3 -29 -22z
m36 4 c0 -5 -4 -10 -10 -10 -5 0 -10 5 -10 10 0 6 5 10 10 10 6 0 10 -4 10
-10z"/>
<path d="M1240 1806 c0 -25 5 -46 10 -46 6 0 10 6 10 14 0 8 10 16 23 18 16 2
22 10 22 28 0 21 -5 26 -32 28 -33 3 -33 3 -33 -42z m45 14 c0 -7 -6 -15 -12
-17 -8 -3 -13 4 -13 17 0 13 5 20 13 18 6 -3 12 -11 12 -18z"/>
<path d="M1479 1833 c-1 -10 -1 -25 0 -35 1 -9 -3 -20 -10 -24 -8 -5 -10 2 -7
25 3 20 1 30 -6 28 -6 -2 -11 -17 -11 -33 0 -24 4 -29 28 -31 26 -2 27 0 27
43 0 41 -19 65 -21 27z"/>
<path d="M1573 1836 c-14 -7 -23 -20 -23 -33 0 -12 -4 -25 -10 -28 -6 -4 -10
7 -10 24 0 17 -5 31 -11 31 -6 0 -9 -14 -7 -32 3 -28 7 -33 31 -35 24 -2 27 2
28 30 l1 32 7 -29 c9 -45 26 -42 24 5 0 22 -3 41 -5 43 -1 1 -13 -3 -25 -8z"/>
<path d="M1320 1795 c0 -19 5 -35 10 -35 6 0 10 13 10 29 0 16 6 32 13 34 6 3
2 6 -10 6 -20 1 -23 -4 -23 -34z"/>
<path d="M1374 1806 c-7 -28 1 -46 20 -46 21 0 38 27 31 50 -9 28 -43 26 -51
-4z m36 -11 c0 -14 -4 -25 -10 -25 -5 0 -10 11 -10 25 0 14 5 25 10 25 6 0 10
-11 10 -25z"/>
<path d="M1624 1806 c-7 -28 1 -46 20 -46 21 0 38 27 31 50 -9 28 -43 26 -51
-4z m36 -11 c0 -14 -4 -25 -10 -25 -5 0 -10 11 -10 25 0 14 5 25 10 25 6 0 10
-11 10 -25z"/>
<path d="M1694 1819 c-4 -7 4 -20 17 -31 l24 -19 -24 6 c-16 5 -21 4 -17 -4 9
-14 43 -14 52 0 4 7 -4 20 -17 31 l-24 19 24 -6 c16 -5 21 -4 17 4 -9 14 -43
14 -52 0z"/>
<path d="M4169 1833 c-1 -10 -1 -25 0 -35 1 -9 -3 -20 -10 -24 -8 -5 -10 2 -7
25 3 20 1 30 -6 28 -6 -2 -11 -17 -11 -33 0 -24 4 -29 28 -31 26 -2 27 0 27
43 0 41 -19 65 -21 27z"/>
<path d="M4663 1839 c-12 -12 -2 -71 12 -76 9 -3 12 74 3 83 -2 2 -9 -1 -15
-7z"/>
<path d="M4204 1806 c-7 -28 1 -46 20 -46 21 0 38 27 31 50 -9 28 -43 26 -51
-4z m36 -11 c0 -14 -4 -25 -10 -25 -5 0 -10 11 -10 25 0 14 5 25 10 25 6 0 10
-11 10 -25z"/>
<path d="M4275 1811 c-3 -10 -3 -26 1 -35 7 -18 39 -22 50 -5 4 8 0 9 -15 4
-18 -5 -21 -2 -21 20 0 22 3 25 21 20 15 -5 19 -4 15 4 -11 18 -44 13 -51 -8z"/>
<path d="M4342 1798 c3 -28 7 -33 31 -35 25 -2 27 1 27 33 0 19 -4 34 -10 34
-5 0 -10 -11 -10 -24 0 -14 -4 -28 -10 -31 -6 -4 -10 7 -10 24 0 17 -5 31 -11
31 -6 0 -9 -14 -7 -32z"/>
<path d="M4410 1794 c0 -19 5 -34 10 -34 6 0 10 11 10 24 0 14 5 28 10 31 6 4
10 -7 10 -24 0 -17 5 -31 10 -31 6 0 10 11 10 24 0 14 5 28 10 31 6 4 10 -7
10 -24 0 -17 5 -31 11 -31 6 0 9 14 7 32 -3 31 -5 33 -50 34 l-48 2 0 -34z"/>
<path d="M4524 1806 c-3 -14 -3 -30 1 -35 8 -14 42 -14 51 0 4 8 0 9 -15 4
-12 -4 -21 -2 -21 4 0 6 9 11 21 11 28 0 21 34 -8 38 -17 3 -24 -3 -29 -22z
m36 4 c0 -5 -4 -10 -10 -10 -5 0 -10 5 -10 10 0 6 5 10 10 10 6 0 10 -4 10
-10z"/>
<path d="M4590 1794 c0 -19 5 -34 10 -34 6 0 10 11 10 24 0 14 5 28 10 31 6 4
10 -7 10 -24 0 -17 5 -31 11 -31 6 0 9 14 7 32 -3 28 -7 33 -30 35 -26 2 -28
-1 -28 -33z"/>
<path d="M4706 1822 c-4 -6 3 -8 16 -5 23 6 23 6 -1 -14 -28 -23 -21 -43 15
-43 22 0 25 4 22 33 -2 24 -8 33 -25 35 -11 2 -24 -1 -27 -6z m30 -49 c-10
-10 -19 5 -10 18 6 11 8 11 12 0 2 -7 1 -15 -2 -18z"/>
<path d="M1379 7653 c-1 -10 -1 -25 0 -35 1 -9 -3 -20 -10 -24 -8 -5 -10 2 -7
25 3 20 1 30 -6 28 -6 -2 -11 -17 -11 -33 0 -24 4 -29 28 -31 26 -2 27 0 27
43 0 41 -19 65 -21 27z"/>
<path d="M1550 7625 c0 -25 5 -45 10 -45 6 0 10 20 10 45 0 25 -4 45 -10 45
-5 0 -10 -20 -10 -45z"/>
<path d="M1753 7659 c-12 -12 -2 -71 12 -76 9 -3 12 74 3 83 -2 2 -9 -1 -15
-7z"/>
<path d="M1310 7615 c0 -19 5 -35 10 -35 6 0 10 16 10 35 0 19 -4 35 -10 35
-5 0 -10 -16 -10 -35z"/>
<path d="M1485 7631 c-3 -10 -3 -26 1 -35 7 -18 39 -22 50 -5 4 8 0 9 -15 4
-18 -5 -21 -2 -21 20 0 22 3 25 21 20 15 -5 19 -4 15 4 -11 18 -44 13 -51 -8z"/>
<path d="M1580 7615 c0 -19 5 -35 10 -35 6 0 10 16 10 35 0 19 -4 35 -10 35
-5 0 -10 -16 -10 -35z"/>
<path d="M1614 7626 c-3 -14 -3 -30 1 -35 8 -14 42 -14 51 0 4 8 0 9 -15 4
-12 -4 -21 -2 -21 4 0 6 9 11 21 11 28 0 21 34 -8 38 -17 3 -24 -3 -29 -22z
m36 4 c0 -5 -4 -10 -10 -10 -5 0 -10 5 -10 10 0 6 5 10 10 10 6 0 10 -4 10
-10z"/>
<path d="M1680 7614 c0 -19 5 -34 10 -34 6 0 10 11 10 24 0 14 5 28 10 31 6 4
10 -7 10 -24 0 -17 5 -31 11 -31 6 0 9 14 7 32 -3 28 -7 33 -30 35 -26 2 -28
-1 -28 -33z"/>
<path d="M1794 7626 c-3 -14 -3 -30 1 -35 8 -14 42 -14 51 0 4 8 0 9 -15 4
-12 -4 -21 -2 -21 4 0 6 9 11 21 11 28 0 21 34 -8 38 -17 3 -24 -3 -29 -22z
m36 4 c0 -5 -4 -10 -10 -10 -5 0 -10 5 -10 10 0 6 5 10 10 10 6 0 10 -4 10
-10z"/>
<path d="M1428 7563 c12 -2 30 -2 40 0 9 3 -1 5 -23 4 -22 0 -30 -2 -17 -4z"/>
<path d="M1520 7435 c0 -25 5 -45 10 -45 6 0 10 20 10 45 0 25 -4 45 -10 45
-5 0 -10 -20 -10 -45z"/>
<path d="M1723 7469 c-12 -12 -2 -71 12 -76 9 -3 12 74 3 83 -2 2 -9 -1 -15
-7z"/>
<path d="M1455 7441 c-3 -10 -3 -26 1 -35 7 -18 39 -22 50 -5 4 8 0 9 -15 4
-18 -5 -21 -2 -21 20 0 22 3 25 21 20 15 -5 19 -4 15 4 -11 18 -44 13 -51 -8z"/>
<path d="M1550 7425 c0 -19 5 -35 10 -35 6 0 10 16 10 35 0 19 -4 35 -10 35
-5 0 -10 -16 -10 -35z"/>
<path d="M1584 7436 c-3 -14 -3 -30 1 -35 8 -14 42 -14 51 0 4 8 0 9 -15 4
-12 -4 -21 -2 -21 4 0 6 9 11 21 11 28 0 21 34 -8 38 -17 3 -24 -3 -29 -22z
m36 4 c0 -5 -4 -10 -10 -10 -5 0 -10 5 -10 10 0 6 5 10 10 10 6 0 10 -4 10
-10z"/>
<path d="M1650 7424 c0 -19 5 -34 10 -34 6 0 10 11 10 24 0 14 5 28 10 31 6 4
10 -7 10 -24 0 -17 5 -31 11 -31 6 0 9 14 7 32 -3 28 -7 33 -30 35 -26 2 -28
-1 -28 -33z"/>
<path d="M1764 7436 c-3 -14 -3 -30 1 -35 8 -14 42 -14 51 0 4 8 0 9 -15 4
-12 -4 -21 -2 -21 4 0 6 9 11 21 11 28 0 21 34 -8 38 -17 3 -24 -3 -29 -22z
m36 4 c0 -5 -4 -10 -10 -10 -5 0 -10 5 -10 10 0 6 5 10 10 10 6 0 10 -4 10
-10z"/>
<path d="M1900 7424 c0 -19 5 -34 10 -34 6 0 10 11 10 24 0 14 5 28 10 31 6 4
10 -7 10 -24 0 -17 5 -31 11 -31 6 0 9 14 7 32 -3 28 -7 33 -30 35 -26 2 -28
-1 -28 -33z"/>
<path d="M1974 7436 c-7 -28 1 -46 20 -46 21 0 38 27 31 50 -9 28 -43 26 -51
-4z m36 -11 c0 -14 -4 -25 -10 -25 -5 0 -10 11 -10 25 0 14 5 25 10 25 6 0 10
-11 10 -25z"/>
<path d="M2040 7424 c0 -19 5 -34 10 -34 6 0 10 11 10 24 0 14 5 28 10 31 6 4
10 -7 10 -24 0 -17 5 -31 10 -31 6 0 10 11 10 24 0 14 5 28 10 31 6 4 10 -7
10 -24 0 -17 5 -31 11 -31 6 0 9 14 7 32 -3 31 -5 33 -50 34 l-48 2 0 -34z"/>
<path d="M2154 7436 c-3 -14 -3 -30 1 -35 8 -14 42 -14 51 0 4 8 0 9 -15 4
-12 -4 -21 -2 -21 4 0 6 9 11 21 11 28 0 21 34 -8 38 -17 3 -24 -3 -29 -22z
m36 4 c0 -5 -4 -10 -10 -10 -5 0 -10 5 -10 10 0 6 5 10 10 10 6 0 10 -4 10
-10z"/>
<path d="M7179 7393 c-1 -10 -1 -25 0 -35 1 -9 -3 -20 -10 -24 -8 -5 -10 2 -7
25 3 20 1 30 -6 28 -6 -2 -11 -17 -11 -33 0 -24 4 -29 28 -31 26 -2 27 0 27
43 0 41 -19 65 -21 27z"/>
<path d="M7519 7393 c-1 -10 -1 -25 0 -35 1 -9 -3 -20 -10 -24 -8 -5 -10 2 -7
25 3 20 1 30 -6 28 -6 -2 -11 -17 -11 -33 0 -24 4 -29 28 -31 26 -2 27 0 27
43 0 41 -19 65 -21 27z"/>
<path d="M7110 7355 c0 -19 5 -35 10 -35 6 0 10 16 10 35 0 19 -4 35 -10 35
-5 0 -10 -16 -10 -35z"/>
<path d="M7270 7386 c0 -19 25 -66 35 -66 10 0 35 47 35 66 0 14 -20 0 -26
-18 l-7 -23 -10 23 c-8 18 -27 31 -27 18z"/>
<path d="M7344 7366 c-3 -14 -3 -30 1 -35 8 -14 42 -14 51 0 4 8 0 9 -15 4
-12 -4 -21 -2 -21 4 0 6 9 11 21 11 28 0 21 34 -8 38 -17 3 -24 -3 -29 -22z
m36 4 c0 -5 -4 -10 -10 -10 -5 0 -10 5 -10 10 0 6 5 10 10 10 6 0 10 -4 10
-10z"/>
<path d="M7410 7354 c0 -19 5 -34 10 -34 6 0 10 11 10 24 0 14 5 28 10 31 6 4
10 -7 10 -24 0 -17 5 -31 11 -31 6 0 9 14 7 32 -3 28 -7 33 -30 35 -26 2 -28
-1 -28 -33z"/>
<path d="M7556 7382 c-4 -6 3 -8 16 -5 23 6 23 6 -1 -14 -28 -23 -21 -43 15
-43 22 0 25 4 22 33 -2 24 -8 33 -25 35 -11 2 -24 -1 -27 -6z m30 -49 c-10
-10 -19 5 -10 18 6 11 8 11 12 0 2 -7 1 -15 -2 -18z"/>
<path d="M1848 7373 c12 -2 30 -2 40 0 9 3 -1 5 -23 4 -22 0 -30 -2 -17 -4z"/>
<path d="M7228 7303 c12 -2 30 -2 40 0 9 3 -1 5 -23 4 -22 0 -30 -2 -17 -4z"/>
<path d="M1660 7245 c0 -25 5 -45 10 -45 6 0 10 20 10 45 0 25 -4 45 -10 45
-5 0 -10 -20 -10 -45z"/>
<path d="M1863 7279 c-12 -12 -2 -71 12 -76 9 -3 12 74 3 83 -2 2 -9 -1 -15
-7z"/>
<path d="M2320 7245 c0 -25 5 -45 10 -45 6 0 10 20 10 45 0 25 -4 45 -10 45
-5 0 -10 -20 -10 -45z"/>
<path d="M1595 7251 c-3 -10 -3 -26 1 -35 7 -18 39 -22 50 -5 4 8 0 9 -15 4
-18 -5 -21 -2 -21 20 0 22 3 25 21 20 15 -5 19 -4 15 4 -11 18 -44 13 -51 -8z"/>
<path d="M1690 7235 c0 -19 5 -35 10 -35 6 0 10 16 10 35 0 19 -4 35 -10 35
-5 0 -10 -16 -10 -35z"/>
<path d="M1724 7246 c-3 -14 -3 -30 1 -35 8 -14 42 -14 51 0 4 8 0 9 -15 4
-12 -4 -21 -2 -21 4 0 6 9 11 21 11 28 0 21 34 -8 38 -17 3 -24 -3 -29 -22z
m36 4 c0 -5 -4 -10 -10 -10 -5 0 -10 5 -10 10 0 6 5 10 10 10 6 0 10 -4 10
-10z"/>
<path d="M1790 7234 c0 -19 5 -34 10 -34 6 0 10 11 10 24 0 14 5 28 10 31 6 4
10 -7 10 -24 0 -17 5 -31 11 -31 6 0 9 14 7 32 -3 28 -7 33 -30 35 -26 2 -28
-1 -28 -33z"/>
<path d="M1904 7246 c-3 -14 -3 -30 1 -35 8 -14 42 -14 51 0 4 8 0 9 -15 4
-12 -4 -21 -2 -21 4 0 6 9 11 21 11 28 0 21 34 -8 38 -17 3 -24 -3 -29 -22z
m36 4 c0 -5 -4 -10 -10 -10 -5 0 -10 5 -10 10 0 6 5 10 10 10 6 0 10 -4 10
-10z"/>
<path d="M2044 7246 c-3 -14 -3 -30 1 -35 8 -14 42 -14 51 0 4 8 0 9 -15 4
-12 -4 -21 -2 -21 4 0 6 9 11 21 11 28 0 21 34 -8 38 -17 3 -24 -3 -29 -22z
m36 4 c0 -5 -4 -10 -10 -10 -5 0 -10 5 -10 10 0 6 5 10 10 10 6 0 10 -4 10
-10z"/>
<path d="M2110 7234 c0 -19 5 -34 10 -34 6 0 10 11 10 24 0 14 5 28 10 31 6 4
10 -7 10 -24 0 -17 5 -31 10 -31 6 0 10 11 10 24 0 14 5 28 10 31 6 4 10 -7
10 -24 0 -17 5 -31 11 -31 6 0 9 14 7 32 -3 31 -5 33 -50 34 l-48 2 0 -34z"/>
<path d="M2226 7262 c-4 -6 3 -8 16 -5 23 6 23 6 -1 -14 -28 -23 -21 -43 15
-43 22 0 25 4 22 33 -2 24 -8 33 -25 35 -11 2 -24 -1 -27 -6z m30 -49 c-10
-10 -19 5 -10 18 6 11 8 11 12 0 2 -7 1 -15 -2 -18z"/>
<path d="M2290 7235 c0 -19 5 -35 10 -35 6 0 10 16 10 35 0 19 -4 35 -10 35
-5 0 -10 -16 -10 -35z"/>
<path d="M7319 7203 c-1 -10 -1 -25 0 -35 1 -9 -3 -20 -10 -24 -8 -5 -10 2 -7
25 3 20 1 30 -6 28 -6 -2 -11 -17 -11 -33 0 -24 4 -29 28 -31 26 -2 27 0 27
43 0 41 -19 65 -21 27z"/>
<path d="M7490 7175 c0 -25 5 -45 10 -45 6 0 10 20 10 45 0 25 -4 45 -10 45
-5 0 -10 -20 -10 -45z"/>
<path d="M7693 7209 c-12 -12 -2 -71 12 -76 9 -3 12 74 3 83 -2 2 -9 -1 -15
-7z"/>
<path d="M7250 7165 c0 -19 5 -35 10 -35 6 0 10 16 10 35 0 19 -4 35 -10 35
-5 0 -10 -16 -10 -35z"/>
<path d="M7425 7181 c-3 -10 -3 -26 1 -35 7 -18 39 -22 50 -5 4 8 0 9 -15 4
-18 -5 -21 -2 -21 20 0 22 3 25 21 20 15 -5 19 -4 15 4 -11 18 -44 13 -51 -8z"/>
<path d="M7520 7165 c0 -19 5 -35 10 -35 6 0 10 16 10 35 0 19 -4 35 -10 35
-5 0 -10 -16 -10 -35z"/>
<path d="M7554 7176 c-3 -14 -3 -30 1 -35 8 -14 42 -14 51 0 4 8 0 9 -15 4
-12 -4 -21 -2 -21 4 0 6 9 11 21 11 28 0 21 34 -8 38 -17 3 -24 -3 -29 -22z
m36 4 c0 -5 -4 -10 -10 -10 -5 0 -10 5 -10 10 0 6 5 10 10 10 6 0 10 -4 10
-10z"/>
<path d="M7620 7164 c0 -19 5 -34 10 -34 6 0 10 11 10 24 0 14 5 28 10 31 6 4
10 -7 10 -24 0 -17 5 -31 11 -31 6 0 9 14 7 32 -3 28 -7 33 -30 35 -26 2 -28
-1 -28 -33z"/>
<path d="M7734 7176 c-3 -14 -3 -30 1 -35 8 -14 42 -14 51 0 4 8 0 9 -15 4
-12 -4 -21 -2 -21 4 0 6 9 11 21 11 28 0 21 34 -8 38 -17 3 -24 -3 -29 -22z
m36 4 c0 -5 -4 -10 -10 -10 -5 0 -10 5 -10 10 0 6 5 10 10 10 6 0 10 -4 10
-10z"/>
<path d="M1988 7183 c12 -2 30 -2 40 0 9 3 -1 5 -23 4 -22 0 -30 -2 -17 -4z"/>
<path d="M7368 7113 c12 -2 30 -2 40 0 9 3 -1 5 -23 4 -22 0 -30 -2 -17 -4z"/>
<path d="M1800 7055 c0 -25 5 -45 10 -45 6 0 10 20 10 45 0 25 -4 45 -10 45
-5 0 -10 -20 -10 -45z"/>
<path d="M2003 7089 c-12 -12 -2 -71 12 -76 9 -3 12 74 3 83 -2 2 -9 -1 -15
-7z"/>
<path d="M2183 7089 c-12 -12 -2 -71 12 -76 9 -3 12 74 3 83 -2 2 -9 -1 -15
-7z"/>
<path d="M2290 7055 c0 -25 5 -45 10 -45 6 0 10 20 10 45 0 25 -4 45 -10 45
-5 0 -10 -20 -10 -45z"/>
<path d="M2394 7090 c-12 -12 -6 -80 7 -80 7 0 12 38 8 66 0 4 5 11 13 15 10
7 10 9 -2 9 -9 0 -20 -4 -26 -10z"/>
<path d="M1735 7061 c-3 -10 -3 -26 1 -35 7 -18 39 -22 50 -5 4 8 0 9 -15 4
-18 -5 -21 -2 -21 20 0 22 3 25 21 20 15 -5 19 -4 15 4 -11 18 -44 13 -51 -8z"/>
<path d="M1830 7045 c0 -19 5 -35 10 -35 6 0 10 16 10 35 0 19 -4 35 -10 35
-5 0 -10 -16 -10 -35z"/>
<path d="M1864 7056 c-3 -14 -3 -30 1 -35 8 -14 42 -14 51 0 4 8 0 9 -15 4
-12 -4 -21 -2 -21 4 0 6 9 11 21 11 28 0 21 34 -8 38 -17 3 -24 -3 -29 -22z
m36 4 c0 -5 -4 -10 -10 -10 -5 0 -10 5 -10 10 0 6 5 10 10 10 6 0 10 -4 10
-10z"/>
<path d="M1930 7044 c0 -19 5 -34 10 -34 6 0 10 11 10 24 0 14 5 28 10 31 6 4
10 -7 10 -24 0 -17 5 -31 11 -31 6 0 9 14 7 32 -3 28 -7 33 -30 35 -26 2 -28
-1 -28 -33z"/>
<path d="M2044 7056 c-3 -14 -3 -30 1 -35 8 -14 42 -14 51 0 4 8 0 9 -15 4
-12 -4 -21 -2 -21 4 0 6 9 11 21 11 28 0 21 34 -8 38 -17 3 -24 -3 -29 -22z
m36 4 c0 -5 -4 -10 -10 -10 -5 0 -10 5 -10 10 0 6 5 10 10 10 6 0 10 -4 10
-10z"/>
<path d="M2224 7056 c-3 -14 -3 -30 1 -35 8 -14 42 -14 51 0 4 8 0 9 -15 4
-12 -4 -21 -2 -21 4 0 6 9 11 21 11 28 0 21 34 -8 38 -17 3 -24 -3 -29 -22z
m36 4 c0 -5 -4 -10 -10 -10 -5 0 -10 5 -10 10 0 6 5 10 10 10 6 0 10 -4 10
-10z"/>
<path d="M2324 7056 c-3 -14 -3 -30 1 -35 8 -14 42 -14 51 0 4 8 0 9 -15 4
-12 -4 -21 -2 -21 4 0 6 9 11 21 11 28 0 21 34 -8 38 -17 3 -24 -3 -29 -22z
m36 4 c0 -5 -4 -10 -10 -10 -5 0 -10 5 -10 10 0 6 5 10 10 10 6 0 10 -4 10
-10z"/>
<path d="M2434 7056 c-7 -28 1 -46 20 -46 21 0 38 27 31 50 -9 28 -43 26 -51
-4z m36 -11 c0 -14 -4 -25 -10 -25 -5 0 -10 11 -10 25 0 14 5 25 10 25 6 0 10
-11 10 -25z"/>
<path d="M2500 7044 c0 -19 5 -34 10 -34 6 0 10 11 10 24 0 14 5 28 10 31 6 4
10 -7 10 -24 0 -17 5 -31 11 -31 6 0 9 14 7 32 -3 28 -7 33 -30 35 -26 2 -28
-1 -28 -33z"/>
<path d="M2574 7056 c-3 -14 -3 -30 1 -35 8 -14 42 -14 51 0 4 8 0 9 -15 4
-12 -4 -21 -2 -21 4 0 6 9 11 21 11 28 0 21 34 -8 38 -17 3 -24 -3 -29 -22z
m36 4 c0 -5 -4 -10 -10 -10 -5 0 -10 5 -10 10 0 6 5 10 10 10 6 0 10 -4 10
-10z"/>
<path d="M7629 7013 c-1 -10 -1 -25 0 -35 1 -9 -3 -20 -10 -24 -8 -5 -10 2 -7
25 3 20 1 30 -6 28 -6 -2 -11 -17 -11 -33 0 -24 4 -29 28 -31 26 -2 27 0 27
43 0 41 -19 65 -21 27z"/>
<path d="M7839 7013 c-1 -10 -1 -25 0 -35 1 -9 -3 -20 -10 -24 -8 -5 -10 2 -7
25 3 20 1 30 -6 28 -6 -2 -11 -17 -11 -33 0 -24 4 -29 28 -31 26 -2 27 0 27
43 0 41 -19 65 -21 27z"/>
<path d="M7943 7019 c-12 -12 -2 -71 12 -76 9 -3 12 74 3 83 -2 2 -9 -1 -15
-7z"/>
<path d="M7380 7006 c0 -19 25 -66 35 -66 10 0 35 47 35 66 0 14 -20 0 -26
-18 l-7 -23 -10 23 c-8 18 -27 31 -27 18z"/>
<path d="M7454 6986 c-3 -14 -3 -30 1 -35 8 -14 42 -14 51 0 4 8 0 9 -15 4
-12 -4 -21 -2 -21 4 0 6 9 11 21 11 28 0 21 34 -8 38 -17 3 -24 -3 -29 -22z
m36 4 c0 -5 -4 -10 -10 -10 -5 0 -10 5 -10 10 0 6 5 10 10 10 6 0 10 -4 10
-10z"/>
<path d="M7520 6974 c0 -19 5 -34 10 -34 6 0 10 11 10 24 0 14 5 28 10 31 6 4
10 -7 10 -24 0 -17 5 -31 11 -31 6 0 9 14 7 32 -3 28 -7 33 -30 35 -26 2 -28
-1 -28 -33z"/>
<path d="M7666 7002 c-4 -6 3 -8 16 -5 23 6 23 6 -1 -14 -28 -23 -21 -43 15
-43 22 0 25 4 22 33 -2 24 -8 33 -25 35 -11 2 -24 -1 -27 -6z m30 -49 c-10
-10 -19 5 -10 18 6 11 8 11 12 0 2 -7 1 -15 -2 -18z"/>
<path d="M7876 7002 c-4 -6 3 -8 16 -5 23 6 23 6 -1 -14 -28 -23 -21 -43 15
-43 22 0 25 4 22 33 -2 24 -8 33 -25 35 -11 2 -24 -1 -27 -6z m30 -49 c-10
-10 -19 5 -10 18 6 11 8 11 12 0 2 -7 1 -15 -2 -18z"/>
<path d="M7986 7002 c-4 -6 3 -8 16 -5 23 6 23 6 -1 -14 -28 -23 -21 -43 15
-43 22 0 25 4 22 33 -2 24 -8 33 -25 35 -11 2 -24 -1 -27 -6z m30 -49 c-10
-10 -19 5 -10 18 6 11 8 11 12 0 2 -7 1 -15 -2 -18z"/>
<path d="M2128 6993 c12 -2 30 -2 40 0 9 3 -1 5 -23 4 -22 0 -30 -2 -17 -4z"/>
<path d="M7748 6923 c12 -2 30 -2 40 0 9 3 -1 5 -23 4 -22 0 -30 -2 -17 -4z"/>
<path d="M1940 6865 c0 -25 5 -45 10 -45 6 0 10 20 10 45 0 25 -4 45 -10 45
-5 0 -10 -20 -10 -45z"/>
<path d="M2143 6899 c-12 -12 -2 -71 12 -76 9 -3 12 74 3 83 -2 2 -9 -1 -15
-7z"/>
<path d="M2499 6893 c-1 -10 -1 -25 0 -35 1 -9 -3 -20 -10 -24 -8 -5 -10 2 -7
25 3 20 1 30 -6 28 -6 -2 -11 -17 -11 -33 0 -24 4 -29 28 -31 26 -2 27 0 27
43 0 41 -19 65 -21 27z"/>
<path d="M1875 6871 c-3 -10 -3 -26 1 -35 7 -18 39 -22 50 -5 4 8 0 9 -15 4
-18 -5 -21 -2 -21 20 0 22 3 25 21 20 15 -5 19 -4 15 4 -11 18 -44 13 -51 -8z"/>
<path d="M1970 6855 c0 -19 5 -35 10 -35 6 0 10 16 10 35 0 19 -4 35 -10 35
-5 0 -10 -16 -10 -35z"/>
<path d="M2004 6866 c-3 -14 -3 -30 1 -35 8 -14 42 -14 51 0 4 8 0 9 -15 4
-12 -4 -21 -2 -21 4 0 6 9 11 21 11 28 0 21 34 -8 38 -17 3 -24 -3 -29 -22z
m36 4 c0 -5 -4 -10 -10 -10 -5 0 -10 5 -10 10 0 6 5 10 10 10 6 0 10 -4 10
-10z"/>
<path d="M2070 6854 c0 -19 5 -34 10 -34 6 0 10 11 10 24 0 14 5 28 10 31 6 4
10 -7 10 -24 0 -17 5 -31 11 -31 6 0 9 14 7 32 -3 28 -7 33 -30 35 -26 2 -28
-1 -28 -33z"/>
<path d="M2184 6866 c-3 -14 -3 -30 1 -35 8 -14 42 -14 51 0 4 8 0 9 -15 4
-12 -4 -21 -2 -21 4 0 6 9 11 21 11 28 0 21 34 -8 38 -17 3 -24 -3 -29 -22z
m36 4 c0 -5 -4 -10 -10 -10 -5 0 -10 5 -10 10 0 6 5 10 10 10 6 0 10 -4 10
-10z"/>
<path d="M2324 6866 c-3 -14 -3 -30 1 -35 8 -14 42 -14 51 0 4 8 0 9 -15 4
-12 -4 -21 -2 -21 4 0 6 9 11 21 11 28 0 21 34 -8 38 -17 3 -24 -3 -29 -22z
m36 4 c0 -5 -4 -10 -10 -10 -5 0 -10 5 -10 10 0 6 5 10 10 10 6 0 10 -4 10
-10z"/>
<path d="M2390 6854 c0 -19 5 -34 10 -34 6 0 10 11 10 24 0 14 5 28 10 31 6 4
10 -7 10 -24 0 -17 5 -31 11 -31 6 0 9 14 7 32 -3 28 -7 33 -30 35 -26 2 -28
-1 -28 -33z"/>
<path d="M2534 6866 c-3 -14 -3 -30 1 -35 8 -14 42 -14 51 0 4 8 0 9 -15 4
-12 -4 -21 -2 -21 4 0 6 9 11 21 11 28 0 21 34 -8 38 -17 3 -24 -3 -29 -22z
m36 4 c0 -5 -4 -10 -10 -10 -5 0 -10 5 -10 10 0 6 5 10 10 10 6 0 10 -4 10
-10z"/>
<path d="M2600 6855 c0 -19 5 -35 10 -35 6 0 10 13 10 29 0 16 6 32 13 34 6 3
2 6 -10 6 -20 1 -23 -4 -23 -34z"/>
<path d="M2654 6866 c-3 -14 -3 -30 1 -35 8 -14 42 -14 51 0 4 8 0 9 -15 4
-12 -4 -21 -2 -21 4 0 6 9 11 21 11 28 0 21 34 -8 38 -17 3 -24 -3 -29 -22z
m36 4 c0 -5 -4 -10 -10 -10 -5 0 -10 5 -10 10 0 6 5 10 10 10 6 0 10 -4 10
-10z"/>
<path d="M2725 6871 c-3 -10 -3 -26 1 -35 7 -18 39 -22 50 -5 4 8 0 9 -15 4
-18 -5 -21 -2 -21 20 0 22 3 25 21 20 15 -5 19 -4 15 4 -11 18 -44 13 -51 -8z"/>
<path d="M2794 6866 c-7 -28 1 -46 20 -46 21 0 38 27 31 50 -9 28 -43 26 -51
-4z m36 -11 c0 -14 -4 -25 -10 -25 -5 0 -10 11 -10 25 0 14 5 25 10 25 6 0 10
-11 10 -25z"/>
<path d="M7769 6823 c-1 -10 -1 -25 0 -35 1 -9 -3 -20 -10 -24 -8 -5 -10 2 -7
25 3 20 1 30 -6 28 -6 -2 -11 -17 -11 -33 0 -24 4 -29 28 -31 26 -2 27 0 27
43 0 41 -19 65 -21 27z"/>
<path d="M8070 6795 c0 -25 5 -45 10 -45 6 0 10 20 10 45 0 25 -4 45 -10 45
-5 0 -10 -20 -10 -45z"/>
<path d="M8293 6829 c-12 -12 -2 -71 12 -76 9 -3 12 74 3 83 -2 2 -9 -1 -15
-7z"/>
<path d="M8403 6829 c-12 -12 -2 -71 12 -76 9 -3 12 74 3 83 -2 2 -9 -1 -15
-7z"/>
<path d="M8510 6795 c0 -25 5 -45 10 -45 6 0 10 20 10 45 0 25 -4 45 -10 45
-5 0 -10 -20 -10 -45z"/>
<path d="M7520 6816 c0 -19 25 -66 35 -66 10 0 35 47 35 66 0 14 -20 0 -26
-18 l-7 -23 -10 23 c-8 18 -27 31 -27 18z"/>
<path d="M7594 6796 c-3 -14 -3 -30 1 -35 8 -14 42 -14 51 0 4 8 0 9 -15 4
-12 -4 -21 -2 -21 4 0 6 9 11 21 11 28 0 21 34 -8 38 -17 3 -24 -3 -29 -22z
m36 4 c0 -5 -4 -10 -10 -10 -5 0 -10 5 -10 10 0 6 5 10 10 10 6 0 10 -4 10
-10z"/>
<path d="M7660 6784 c0 -19 5 -34 10 -34 6 0 10 11 10 24 0 14 5 28 10 31 6 4
10 -7 10 -24 0 -17 5 -31 11 -31 6 0 9 14 7 32 -3 28 -7 33 -30 35 -26 2 -28
-1 -28 -33z"/>
<path d="M7806 6812 c-4 -6 3 -8 16 -5 23 6 23 6 -1 -14 -28 -23 -21 -43 15
-43 22 0 25 4 22 33 -2 24 -8 33 -25 35 -11 2 -24 -1 -27 -6z m30 -49 c-10
-10 -19 5 -10 18 6 11 8 11 12 0 2 -7 1 -15 -2 -18z"/>
<path d="M7930 6816 c0 -1 5 -17 11 -35 13 -36 35 -41 45 -8 7 24 22 37 43 37
8 0 4 -7 -9 -18 -27 -22 -19 -42 16 -42 22 0 25 4 22 33 -3 29 -6 32 -40 33
-30 2 -39 -2 -44 -20 l-7 -21 -10 23 c-8 18 -27 31 -27 18z m106 -53 c-10 -10
-19 5 -10 18 6 11 8 11 12 0 2 -7 1 -15 -2 -18z"/>
<path d="M8104 6796 c-7 -28 1 -46 20 -46 21 0 38 27 31 50 -9 28 -43 26 -51
-4z m36 -11 c0 -14 -4 -25 -10 -25 -5 0 -10 11 -10 25 0 14 5 25 10 25 6 0 10
-11 10 -25z"/>
<path d="M8170 6785 c0 -19 5 -35 10 -35 6 0 10 13 10 29 0 16 6 32 13 34 6 3
2 6 -10 6 -20 1 -23 -4 -23 -34z"/>
<path d="M8334 6796 c-7 -28 1 -46 20 -46 21 0 38 27 31 50 -9 28 -43 26 -51
-4z m36 -11 c0 -14 -4 -25 -10 -25 -5 0 -10 11 -10 25 0 14 5 25 10 25 6 0 10
-11 10 -25z"/>
<path d="M8446 6812 c-4 -6 3 -8 16 -5 23 6 23 6 -1 -14 -28 -23 -21 -43 15
-43 22 0 25 4 22 33 -2 24 -8 33 -25 35 -11 2 -24 -1 -27 -6z m30 -49 c-10
-10 -19 5 -10 18 6 11 8 11 12 0 2 -7 1 -15 -2 -18z"/>
<path d="M2268 6803 c12 -2 30 -2 40 0 9 3 -1 5 -23 4 -22 0 -30 -2 -17 -4z"/>
<path d="M7888 6733 c12 -2 30 -2 40 0 9 3 -1 5 -23 4 -22 0 -30 -2 -17 -4z"/>
<path d="M8238 6733 c12 -2 30 -2 40 0 9 3 -1 5 -23 4 -22 0 -30 -2 -17 -4z"/>
<path d="M6330 6381 c-13 -26 -13 -53 3 -74 10 -15 12 -9 12 38 0 30 -1 55 -2
55 -1 0 -7 -9 -13 -19z"/>
<path d="M6382 6388 c-15 -15 -16 -32 -2 -23 6 4 10 -7 10 -24 0 -17 5 -31 10
-31 6 0 10 20 10 45 0 46 -7 54 -28 33z"/>
<path d="M6535 6345 c0 -47 2 -53 13 -38 6 9 12 26 12 38 0 12 -6 29 -12 38
-11 15 -13 9 -13 -38z"/>
<path d="M2230 6371 c-13 -26 -13 -53 3 -74 10 -15 12 -9 12 38 0 30 -1 55 -2
55 -1 0 -7 -9 -13 -19z"/>
<path d="M2282 6378 c-15 -15 -16 -32 -2 -23 6 4 10 -7 10 -24 0 -17 5 -31 10
-31 6 0 10 20 10 45 0 46 -7 54 -28 33z"/>
<path d="M2382 6378 c-15 -15 -16 -32 -2 -23 6 4 10 -7 10 -24 0 -17 5 -31 10
-31 6 0 10 20 10 45 0 46 -7 54 -28 33z"/>
<path d="M2435 6335 c0 -47 2 -53 13 -38 6 9 12 26 12 38 0 12 -6 29 -12 38
-11 15 -13 9 -13 -38z"/>
<path d="M6460 6344 c0 -19 5 -34 10 -34 6 0 10 11 10 24 0 14 5 28 10 31 6 4
10 -7 10 -24 0 -17 5 -31 11 -31 6 0 9 14 7 32 -3 28 -7 33 -30 35 -26 2 -28
-1 -28 -33z"/>
<path d="M6433 6311 c0 -11 5 -17 9 -15 11 7 10 34 -1 34 -6 0 -9 -9 -8 -19z"/>
<path d="M2333 6301 c0 -11 5 -17 9 -15 11 7 10 34 -1 34 -6 0 -9 -9 -8 -19z"/>
<path d="M6990 5841 c-13 -26 -13 -53 3 -74 10 -15 12 -9 12 38 0 30 -1 55 -2
55 -1 0 -7 -9 -13 -19z"/>
<path d="M7042 5848 c-15 -15 -16 -32 -2 -23 6 4 10 -7 10 -24 0 -17 5 -31 10
-31 6 0 10 20 10 45 0 46 -7 54 -28 33z"/>
<path d="M7142 5848 c-15 -15 -16 -32 -2 -23 6 4 10 -7 10 -24 0 -17 5 -31 10
-31 6 0 10 20 10 45 0 46 -7 54 -28 33z"/>
<path d="M7195 5805 c0 -47 2 -53 13 -38 6 9 12 26 12 38 0 12 -6 29 -12 38
-11 15 -13 9 -13 -38z"/>
<path d="M7093 5771 c0 -11 5 -17 9 -15 11 7 10 34 -1 34 -6 0 -9 -9 -8 -19z"/>
<path d="M4399 5293 c-1 -10 -1 -25 0 -35 1 -9 -3 -20 -10 -24 -8 -5 -10 2 -7
25 3 20 1 30 -6 28 -6 -2 -11 -17 -11 -33 0 -24 4 -29 28 -31 26 -2 27 0 27
43 0 41 -19 65 -21 27z"/>
<path d="M4523 5296 c-17 -8 -23 -19 -23 -43 0 -43 20 -43 21 0 l1 32 7 -29
c9 -45 26 -42 24 5 0 22 -3 41 -5 43 -1 1 -13 -3 -25 -8z"/>
<path d="M5059 5293 c-1 -10 -1 -25 0 -35 1 -9 -3 -20 -10 -24 -8 -5 -10 2 -7
25 3 20 1 30 -6 28 -6 -2 -11 -17 -11 -33 0 -24 4 -29 28 -31 26 -2 27 0 27
43 0 41 -19 65 -21 27z"/>
<path d="M4330 5255 c0 -19 5 -35 10 -35 6 0 10 16 10 35 0 19 -4 35 -10 35
-5 0 -10 -16 -10 -35z"/>
<path d="M4574 5266 c-3 -14 -3 -30 1 -35 8 -14 42 -14 51 0 4 8 0 9 -15 4
-12 -4 -21 -2 -21 4 0 6 9 11 21 11 28 0 21 34 -8 38 -17 3 -24 -3 -29 -22z
m36 4 c0 -5 -4 -10 -10 -10 -5 0 -10 5 -10 10 0 6 5 10 10 10 6 0 10 -4 10
-10z"/>
<path d="M4640 5254 c0 -19 5 -34 10 -34 6 0 10 11 10 24 0 14 5 28 10 31 6 4
10 -7 10 -24 0 -17 5 -31 10 -31 6 0 10 11 10 24 0 14 5 28 10 31 6 4 10 -7
10 -24 0 -17 5 -31 11 -31 6 0 9 14 7 32 -3 31 -5 33 -50 34 l-48 2 0 -34z"/>
<path d="M4810 5286 c0 -19 25 -66 35 -66 10 0 35 47 35 66 0 14 -20 0 -26
-18 l-7 -23 -10 23 c-8 18 -27 31 -27 18z"/>
<path d="M4884 5266 c-3 -14 -3 -30 1 -35 8 -14 42 -14 51 0 4 8 0 9 -15 4
-12 -4 -21 -2 -21 4 0 6 9 11 21 11 28 0 21 34 -8 38 -17 3 -24 -3 -29 -22z
m36 4 c0 -5 -4 -10 -10 -10 -5 0 -10 5 -10 10 0 6 5 10 10 10 6 0 10 -4 10
-10z"/>
<path d="M4950 5254 c0 -19 5 -34 10 -34 6 0 10 11 10 24 0 14 5 28 10 31 6 4
10 -7 10 -24 0 -17 5 -31 11 -31 6 0 9 14 7 32 -3 28 -7 33 -30 35 -26 2 -28
-1 -28 -33z"/>
<path d="M5096 5282 c-4 -6 3 -8 16 -5 23 6 23 6 -1 -14 -28 -23 -21 -43 15
-43 22 0 25 4 22 33 -2 24 -8 33 -25 35 -11 2 -24 -1 -27 -6z m30 -49 c-10
-10 -19 5 -10 18 6 11 8 11 12 0 2 -7 1 -15 -2 -18z"/>
<path d="M4448 5203 c12 -2 30 -2 40 0 9 3 -1 5 -23 4 -22 0 -30 -2 -17 -4z"/>
<path d="M4768 5203 c12 -2 30 -2 40 0 9 3 -1 5 -23 4 -22 0 -30 -2 -17 -4z"/>
<path d="M4539 5103 c-1 -10 -1 -25 0 -35 1 -9 -3 -20 -10 -24 -8 -5 -10 2 -7
25 3 20 1 30 -6 28 -6 -2 -11 -17 -11 -33 0 -24 4 -29 28 -31 26 -2 27 0 27
43 0 41 -19 65 -21 27z"/>
<path d="M4879 5103 c-1 -10 -1 -25 0 -35 1 -9 -3 -20 -10 -24 -8 -5 -10 2 -7
25 3 20 1 30 -6 28 -6 -2 -11 -17 -11 -33 0 -24 4 -29 28 -31 26 -2 27 0 27
43 0 41 -19 65 -21 27z"/>
<path d="M4470 5065 c0 -19 5 -35 10 -35 6 0 10 16 10 35 0 19 -4 35 -10 35
-5 0 -10 -16 -10 -35z"/>
<path d="M4630 5096 c0 -19 25 -66 35 -66 10 0 35 47 35 66 0 14 -20 0 -26
-18 l-7 -23 -10 23 c-8 18 -27 31 -27 18z"/>
<path d="M4704 5076 c-3 -14 -3 -30 1 -35 8 -14 42 -14 51 0 4 8 0 9 -15 4
-12 -4 -21 -2 -21 4 0 6 9 11 21 11 28 0 21 34 -8 38 -17 3 -24 -3 -29 -22z
m36 4 c0 -5 -4 -10 -10 -10 -5 0 -10 5 -10 10 0 6 5 10 10 10 6 0 10 -4 10
-10z"/>
<path d="M4770 5064 c0 -19 5 -34 10 -34 6 0 10 11 10 24 0 14 5 28 10 31 6 4
10 -7 10 -24 0 -17 5 -31 11 -31 6 0 9 14 7 32 -3 28 -7 33 -30 35 -26 2 -28
-1 -28 -33z"/>
<path d="M4916 5092 c-4 -6 3 -8 16 -5 23 6 23 6 -1 -14 -28 -23 -21 -43 15
-43 22 0 25 4 22 33 -2 24 -8 33 -25 35 -11 2 -24 -1 -27 -6z m30 -49 c-10
-10 -19 5 -10 18 6 11 8 11 12 0 2 -7 1 -15 -2 -18z"/>
<path d="M4588 5013 c12 -2 30 -2 40 0 9 3 -1 5 -23 4 -22 0 -30 -2 -17 -4z"/>
<path d="M4679 4913 c-1 -10 -1 -25 0 -35 1 -9 -3 -20 -10 -24 -8 -5 -10 2 -7
25 3 20 1 30 -6 28 -6 -2 -11 -17 -11 -33 0 -24 4 -29 28 -31 26 -2 27 0 27
43 0 41 -19 65 -21 27z"/>
<path d="M5009 4913 c-1 -10 -1 -25 0 -35 1 -9 -3 -20 -10 -24 -8 -5 -10 2 -7
25 3 20 1 30 -6 28 -6 -2 -11 -17 -11 -33 0 -24 4 -29 28 -31 26 -2 27 0 27
43 0 41 -19 65 -21 27z"/>
<path d="M5103 4916 c-14 -7 -23 -20 -23 -33 0 -12 -4 -25 -10 -28 -6 -4 -10
7 -10 24 0 17 -5 31 -11 31 -6 0 -9 -14 -7 -32 3 -28 7 -33 31 -35 24 -2 27 2
28 30 l1 32 7 -29 c9 -45 26 -42 24 5 0 22 -3 41 -5 43 -1 1 -13 -3 -25 -8z"/>
<path d="M4610 4875 c0 -19 5 -35 10 -35 6 0 10 16 10 35 0 19 -4 35 -10 35
-5 0 -10 -16 -10 -35z"/>
<path d="M4780 4870 c0 -37 -1 -39 -37 -43 -35 -3 -34 -4 10 -5 49 -2 52 2 48
50 -1 9 3 20 10 24 8 5 10 -2 7 -25 -3 -20 -1 -30 6 -28 6 2 11 17 11 33 0 24
-4 29 -27 31 -26 2 -28 -1 -28 -37z"/>
<path d="M4850 4875 c0 -19 5 -35 10 -35 6 0 10 13 10 29 0 16 6 32 13 34 6 3
2 6 -10 6 -20 1 -23 -4 -23 -34z"/>
<path d="M4904 4886 c-7 -28 1 -46 20 -46 21 0 38 27 31 50 -9 28 -43 26 -51
-4z m36 -11 c0 -14 -4 -25 -10 -25 -5 0 -10 11 -10 25 0 14 5 25 10 25 6 0 10
-11 10 -25z"/>
<path d="M5154 4886 c-7 -28 1 -46 20 -46 21 0 38 27 31 50 -9 28 -43 26 -51
-4z m36 -11 c0 -14 -4 -25 -10 -25 -5 0 -10 11 -10 25 0 14 5 25 10 25 6 0 10
-11 10 -25z"/>
<path d="M5033 4729 c-12 -12 -2 -71 12 -76 9 -3 12 74 3 83 -2 2 -9 -1 -15
-7z"/>
<path d="M5139 4723 c-1 -10 -1 -25 0 -35 1 -9 -3 -20 -10 -24 -8 -5 -10 2 -7
25 3 20 1 30 -6 28 -6 -2 -11 -17 -11 -33 0 -24 4 -29 28 -31 26 -2 27 0 27
43 0 41 -19 65 -21 27z"/>
<path d="M5279 4723 c-1 -10 -1 -25 0 -35 1 -9 -3 -20 -10 -24 -8 -5 -10 2 -7
25 3 20 1 30 -6 28 -6 -2 -11 -17 -11 -33 0 -24 4 -29 28 -31 26 -2 27 0 27
43 0 41 -19 65 -21 27z"/>
<path d="M4753 4704 c-7 -18 0 -47 13 -51 7 -2 9 8 6 28 -3 23 -1 30 7 25 7
-4 11 -15 10 -24 -3 -33 1 -52 11 -52 6 0 10 20 10 44 0 40 -2 44 -26 44 -14
0 -28 -6 -31 -14z"/>
<path d="M4822 4688 c3 -28 7 -33 31 -35 25 -2 27 1 27 33 0 19 -4 34 -10 34
-5 0 -10 -11 -10 -24 0 -14 -4 -28 -10 -31 -6 -4 -10 7 -10 24 0 17 -5 31 -11
31 -6 0 -9 -14 -7 -32z"/>
<path d="M4896 4712 c-4 -6 3 -8 16 -5 23 6 23 6 -1 -14 -28 -23 -21 -43 15
-43 22 0 25 4 22 33 -2 24 -8 33 -25 35 -11 2 -24 -1 -27 -6z m30 -49 c-10
-10 -19 5 -10 18 6 11 8 11 12 0 2 -7 1 -15 -2 -18z"/>
<path d="M4960 4684 c0 -19 5 -34 10 -34 6 0 10 11 10 24 0 14 5 28 10 31 6 4
10 -7 10 -24 0 -17 5 -31 11 -31 6 0 9 14 7 32 -3 28 -7 33 -30 35 -26 2 -28
-1 -28 -33z"/>
<path d="M5070 4685 c0 -19 5 -35 10 -35 6 0 10 16 10 35 0 19 -4 35 -10 35
-5 0 -10 -16 -10 -35z"/>
<path d="M5176 4712 c-4 -6 3 -8 16 -5 23 6 23 6 -1 -14 -28 -23 -21 -43 15
-43 22 0 25 4 22 33 -2 24 -8 33 -25 35 -11 2 -24 -1 -27 -6z m30 -49 c-10
-10 -19 5 -10 18 6 11 8 11 12 0 2 -7 1 -15 -2 -18z"/>
<path d="M5314 4696 c-3 -14 -3 -30 1 -35 8 -14 42 -14 51 0 4 8 0 9 -15 4
-12 -4 -21 -2 -21 4 0 6 9 11 21 11 28 0 21 34 -8 38 -17 3 -24 -3 -29 -22z
m36 4 c0 -5 -4 -10 -10 -10 -5 0 -10 5 -10 10 0 6 5 10 10 10 6 0 10 -4 10
-10z"/>
<path d="M5453 4536 c-17 -8 -23 -19 -23 -43 0 -43 20 -43 21 0 l1 32 7 -29
c9 -45 26 -42 24 5 0 22 -3 41 -5 43 -1 1 -13 -3 -25 -8z"/>
<path d="M4890 4484 c0 -24 5 -44 10 -44 10 0 14 19 11 52 -1 9 3 20 10 24 8
5 10 -2 7 -25 -3 -20 -1 -30 6 -28 6 2 11 17 11 33 0 24 -4 29 -27 31 -27 2
-28 0 -28 -43z"/>
<path d="M4960 4495 c0 -19 5 -35 10 -35 6 0 10 13 10 29 0 16 6 32 13 34 6 3
2 6 -10 6 -20 1 -23 -4 -23 -34z"/>
<path d="M5014 4506 c-3 -14 -3 -30 1 -35 8 -14 42 -14 51 0 4 8 0 9 -15 4
-12 -4 -21 -2 -21 4 0 6 9 11 21 11 28 0 21 34 -8 38 -17 3 -24 -3 -29 -22z
m36 4 c0 -5 -4 -10 -10 -10 -5 0 -10 5 -10 10 0 6 5 10 10 10 6 0 10 -4 10
-10z"/>
<path d="M5085 4511 c-3 -10 -3 -26 1 -35 7 -18 39 -22 50 -5 4 8 0 9 -15 4
-18 -5 -21 -2 -21 20 0 22 3 25 21 20 15 -5 19 -4 15 4 -11 18 -44 13 -51 -8z"/>
<path d="M5154 4506 c-7 -28 1 -46 20 -46 21 0 38 27 31 50 -9 28 -43 26 -51
-4z m36 -11 c0 -14 -4 -25 -10 -25 -5 0 -10 11 -10 25 0 14 5 25 10 25 6 0 10
-11 10 -25z"/>
<path d="M5292 4498 c3 -28 7 -33 31 -35 25 -2 27 1 27 33 0 19 -4 34 -10 34
-5 0 -10 -11 -10 -24 0 -14 -4 -28 -10 -31 -6 -4 -10 7 -10 24 0 17 -5 31 -11
31 -6 0 -9 -14 -7 -32z"/>
<path d="M5360 4494 c0 -19 5 -34 10 -34 6 0 10 11 10 24 0 14 5 28 10 31 6 4
10 -7 10 -24 0 -17 5 -31 11 -31 6 0 9 14 7 32 -3 28 -7 33 -30 35 -26 2 -28
-1 -28 -33z"/>
<path d="M5506 4522 c-4 -6 3 -8 16 -5 23 6 23 6 -1 -14 -28 -23 -21 -43 15
-43 22 0 25 4 22 33 -2 24 -8 33 -25 35 -11 2 -24 -1 -27 -6z m30 -49 c-10
-10 -19 5 -10 18 6 11 8 11 12 0 2 -7 1 -15 -2 -18z"/>
<path d="M5570 4495 c0 -19 5 -35 10 -35 6 0 10 13 10 29 0 16 6 32 13 34 6 3
2 6 -10 6 -20 1 -23 -4 -23 -34z"/>
<path d="M5620 4495 c0 -19 5 -35 10 -35 6 0 10 16 10 35 0 19 -4 35 -10 35
-5 0 -10 -16 -10 -35z"/>
<path d="M5654 4506 c-7 -28 1 -46 20 -46 21 0 38 27 31 50 -9 28 -43 26 -51
-4z m36 -11 c0 -14 -4 -25 -10 -25 -5 0 -10 11 -10 25 0 14 5 25 10 25 6 0 10
-11 10 -25z"/>
<path d="M5238 4443 c12 -2 30 -2 40 0 9 3 -1 5 -23 4 -22 0 -30 -2 -17 -4z"/>
<path d="M5170 4316 c0 -43 1 -45 28 -43 23 2 27 7 27 31 0 16 -5 31 -11 33
-7 2 -9 -8 -6 -28 3 -23 1 -30 -7 -25 -7 4 -11 15 -10 24 3 33 -1 52 -11 52
-5 0 -10 -20 -10 -44z"/>
<path d="M5243 4349 c-12 -12 -2 -71 12 -76 9 -3 12 74 3 83 -2 2 -9 -1 -15
-7z"/>
<path d="M5353 4349 c-12 -12 -2 -71 12 -76 9 -3 12 74 3 83 -2 2 -9 -1 -15
-7z"/>
<path d="M5460 4315 c0 -25 5 -45 10 -45 6 0 10 20 10 45 0 25 -4 45 -10 45
-5 0 -10 -20 -10 -45z"/>
<path d="M5034 4329 c-4 -7 4 -20 17 -31 l24 -19 -24 6 c-16 5 -21 4 -17 -4 9
-14 43 -14 52 0 4 7 -4 20 -17 31 l-24 19 24 -6 c16 -5 21 -4 17 4 -9 14 -43
14 -52 0z"/>
<path d="M5102 4308 c3 -28 7 -33 31 -35 25 -2 27 1 27 33 0 19 -4 34 -10 34
-5 0 -10 -11 -10 -24 0 -14 -4 -28 -10 -31 -6 -4 -10 7 -10 24 0 17 -5 31 -11
31 -6 0 -9 -14 -7 -32z"/>
<path d="M5284 4316 c-7 -28 1 -46 20 -46 21 0 38 27 31 50 -9 28 -43 26 -51
-4z m36 -11 c0 -14 -4 -25 -10 -25 -5 0 -10 11 -10 25 0 14 5 25 10 25 6 0 10
-11 10 -25z"/>
<path d="M5396 4332 c-4 -6 3 -8 16 -5 23 6 23 6 -1 -14 -28 -23 -21 -43 15
-43 22 0 25 4 22 33 -2 24 -8 33 -25 35 -11 2 -24 -1 -27 -6z m30 -49 c-10
-10 -19 5 -10 18 6 11 8 11 12 0 2 -7 1 -15 -2 -18z"/>
<path d="M5110 3881 c-13 -26 -13 -53 3 -74 10 -15 12 -9 12 38 0 30 -1 55 -2
55 -1 0 -7 -9 -13 -19z"/>
<path d="M5162 3888 c-15 -15 -16 -32 -2 -23 6 4 10 -7 10 -24 0 -17 5 -31 10
-31 6 0 10 20 10 45 0 46 -7 54 -28 33z"/>
<path d="M5315 3845 c0 -47 2 -53 13 -38 6 9 12 26 12 38 0 12 -6 29 -12 38
-11 15 -13 9 -13 -38z"/>
<path d="M3410 3871 c-13 -26 -13 -53 3 -74 10 -15 12 -9 12 38 0 30 -1 55 -2
55 -1 0 -7 -9 -13 -19z"/>
<path d="M3444 3877 c-3 -9 -4 -28 -2 -44 2 -22 8 -28 28 -28 23 0 25 4 25 40
0 34 -3 40 -23 43 -13 2 -24 -3 -28 -11z m36 -32 c0 -19 -4 -35 -10 -35 -5 0
-10 16 -10 35 0 19 5 35 10 35 6 0 10 -16 10 -35z"/>
<path d="M3615 3835 c0 -47 2 -53 13 -38 6 9 12 26 12 38 0 12 -6 29 -12 38
-11 15 -13 9 -13 -38z"/>
<path d="M5240 3844 c0 -19 5 -34 10 -34 6 0 10 11 10 24 0 14 5 28 10 31 6 4
10 -7 10 -24 0 -17 5 -31 11 -31 6 0 9 14 7 32 -3 28 -7 33 -30 35 -26 2 -28
-1 -28 -33z"/>
<path d="M3540 3834 c0 -19 5 -34 10 -34 6 0 10 11 10 24 0 14 5 28 10 31 6 4
10 -7 10 -24 0 -17 5 -31 11 -31 6 0 9 14 7 32 -3 28 -7 33 -30 35 -26 2 -28
-1 -28 -33z"/>
<path d="M5213 3811 c0 -11 5 -17 9 -15 11 7 10 34 -1 34 -6 0 -9 -9 -8 -19z"/>
<path d="M3513 3801 c0 -11 5 -17 9 -15 11 7 10 34 -1 34 -6 0 -9 -9 -8 -19z"/>
<path d="M1220 2281 c-13 -26 -13 -53 3 -74 10 -15 12 -9 12 38 0 30 -1 55 -2
55 -1 0 -7 -9 -13 -19z"/>
<path d="M1272 2288 c-15 -15 -16 -32 -2 -23 6 4 10 -7 10 -24 0 -17 5 -31 10
-31 6 0 10 20 10 45 0 46 -7 54 -28 33z"/>
<path d="M1372 2288 c-15 -15 -16 -32 -2 -23 6 4 10 -7 10 -24 0 -17 5 -31 10
-31 6 0 10 20 10 45 0 46 -7 54 -28 33z"/>
<path d="M1425 2245 c0 -47 2 -53 13 -38 6 9 12 26 12 38 0 12 -6 29 -12 38
-11 15 -13 9 -13 -38z"/>
<path d="M1323 2211 c0 -11 5 -17 9 -15 11 7 10 34 -1 34 -6 0 -9 -9 -8 -19z"/>
<path d="M2240 1931 c-13 -26 -13 -53 3 -74 10 -15 12 -9 12 38 0 30 -1 55 -2
55 -1 0 -7 -9 -13 -19z"/>
<path d="M2292 1938 c-15 -15 -16 -32 -2 -23 6 4 10 -7 10 -24 0 -17 5 -31 10
-31 6 0 10 20 10 45 0 46 -7 54 -28 33z"/>
<path d="M2392 1938 c-15 -15 -16 -32 -2 -23 6 4 10 -7 10 -24 0 -17 5 -31 10
-31 6 0 10 20 10 45 0 46 -7 54 -28 33z"/>
<path d="M2445 1895 c0 -47 2 -53 13 -38 6 9 12 26 12 38 0 12 -6 29 -12 38
-11 15 -13 9 -13 -38z"/>
<path d="M6210 1931 c-13 -26 -13 -53 3 -74 10 -15 12 -9 12 38 0 30 -1 55 -2
55 -1 0 -7 -9 -13 -19z"/>
<path d="M6244 1937 c-3 -9 -4 -28 -2 -44 2 -22 8 -28 28 -28 23 0 25 4 25 40
0 34 -3 40 -23 43 -13 2 -24 -3 -28 -11z m36 -32 c0 -19 -4 -35 -10 -35 -5 0
-10 16 -10 35 0 19 5 35 10 35 6 0 10 -16 10 -35z"/>
<path d="M6415 1895 c0 -47 2 -53 13 -38 6 9 12 26 12 38 0 12 -6 29 -12 38
-11 15 -13 9 -13 -38z"/>
<path d="M6340 1894 c0 -19 5 -34 10 -34 6 0 10 11 10 24 0 14 5 28 10 31 6 4
10 -7 10 -24 0 -17 5 -31 11 -31 6 0 9 14 7 32 -3 28 -7 33 -30 35 -26 2 -28
-1 -28 -33z"/>
<path d="M2343 1861 c0 -11 5 -17 9 -15 11 7 10 34 -1 34 -6 0 -9 -9 -8 -19z"/>
<path d="M6313 1861 c0 -11 5 -17 9 -15 11 7 10 34 -1 34 -6 0 -9 -9 -8 -19z"/>
<path d="M6792 803 l-2 -703 46 0 c37 0 52 -5 70 -25 28 -30 67 -32 94 -5 40
40 11 110 -45 110 -28 0 -65 -32 -65 -55 0 -11 -12 -15 -45 -15 l-45 0 -3 698
-2 697 -3 -702z"/>
<path d="M6932 898 l-2 -608 48 0 c42 0 51 -4 70 -30 15 -20 31 -30 48 -30 32
0 74 42 74 74 0 29 -42 66 -76 66 -27 0 -64 -32 -64 -55 0 -11 -12 -15 -45
-15 l-45 0 -3 603 -2 602 -3 -607z m206 -554 c28 -19 28 -51 0 -81 -27 -29
-62 -29 -82 -1 -44 63 19 126 82 82z"/>
<path d="M7082 993 l-2 -513 48 0 c42 0 51 -4 70 -30 15 -20 31 -30 48 -30 32
0 74 42 74 74 0 29 -42 66 -76 66 -27 0 -64 -32 -64 -55 0 -11 -12 -15 -45
-15 l-45 0 -3 508 -2 507 -3 -512z m206 -459 c28 -19 28 -51 0 -81 -27 -29
-62 -29 -82 -1 -44 63 19 126 82 82z"/>
<path d="M7222 1088 l-2 -418 48 0 c42 0 51 -4 70 -30 15 -20 31 -30 48 -30
32 0 74 42 74 74 0 29 -42 66 -76 66 -27 0 -64 -32 -64 -55 0 -11 -12 -15 -45
-15 l-45 0 -3 413 -2 412 -3 -417z m206 -364 c28 -19 28 -51 0 -81 -27 -29
-62 -29 -82 -1 -44 63 19 126 82 82z"/>
<path d="M7372 1183 l-2 -323 48 0 c42 0 51 -4 70 -30 15 -20 31 -30 48 -30
32 0 74 42 74 74 0 29 -42 66 -76 66 -27 0 -64 -32 -64 -55 0 -11 -12 -15 -45
-15 l-45 0 -3 318 -2 317 -3 -322z m206 -269 c28 -19 28 -51 0 -81 -27 -29
-62 -29 -82 -1 -44 63 19 126 82 82z"/>
<path d="M7522 1278 l-2 -228 48 0 c42 0 51 -4 70 -30 15 -20 31 -30 48 -30
32 0 74 42 74 74 0 29 -42 66 -76 66 -27 0 -64 -32 -64 -55 0 -11 -12 -15 -45
-15 l-45 0 -3 223 -2 222 -3 -227z m206 -174 c28 -19 28 -51 0 -81 -27 -29
-62 -29 -82 -1 -44 63 19 126 82 82z"/>
<path d="M7682 1373 l-2 -133 48 0 c42 0 51 -4 70 -30 15 -20 31 -30 48 -30
32 0 74 42 74 74 0 29 -42 66 -76 66 -27 0 -64 -32 -64 -55 0 -11 -12 -15 -45
-15 l-44 0 -4 128 -3 127 -2 -132z m206 -79 c28 -19 28 -51 0 -81 -27 -29 -62
-29 -82 -1 -44 63 19 126 82 82z"/>
<path d="M1092 853 l-2 -643 46 0 c37 0 52 -5 70 -25 28 -30 67 -32 94 -5 40
40 11 110 -45 110 -28 0 -65 -32 -65 -55 0 -11 -12 -15 -45 -15 l-45 0 -3 638
-2 637 -3 -642z"/>
<path d="M1242 948 l-2 -548 48 0 c42 0 51 -4 70 -30 15 -20 31 -30 48 -30 32
0 74 42 74 74 0 29 -42 66 -76 66 -27 0 -64 -32 -64 -55 0 -11 -12 -15 -45
-15 l-45 0 -3 543 -2 542 -3 -547z m206 -494 c28 -19 28 -51 0 -81 -27 -29
-62 -29 -82 -1 -44 63 19 126 82 82z"/>
<path d="M1402 1043 l-2 -453 48 0 c42 0 51 -4 70 -30 15 -20 31 -30 48 -30
32 0 74 42 74 74 0 29 -42 66 -76 66 -27 0 -64 -32 -64 -55 0 -11 -12 -15 -45
-15 l-45 0 -3 448 -2 447 -3 -452z m206 -399 c28 -19 28 -51 0 -81 -27 -29
-62 -29 -82 -1 -44 63 19 126 82 82z"/>
<path d="M1552 1138 l-2 -358 48 0 c42 0 51 -4 70 -30 15 -20 31 -30 48 -30
32 0 74 42 74 74 0 29 -42 66 -76 66 -27 0 -64 -32 -64 -55 0 -11 -12 -15 -45
-15 l-45 0 -3 353 -2 352 -3 -357z m206 -304 c28 -19 28 -51 0 -81 -27 -29
-62 -29 -82 -1 -44 63 19 126 82 82z"/>
<path d="M1712 1233 l-2 -263 48 0 c42 0 51 -4 70 -30 15 -20 31 -30 48 -30
32 0 74 42 74 74 0 29 -42 66 -76 66 -27 0 -64 -32 -64 -55 0 -11 -12 -15 -45
-15 l-45 0 -3 258 -2 257 -3 -262z m206 -209 c28 -19 28 -51 0 -81 -27 -29
-62 -29 -82 -1 -44 63 19 126 82 82z"/>
<path d="M8483 1289 c-12 -12 -2 -71 12 -76 9 -3 12 74 3 83 -2 2 -9 -1 -15
-7z"/>
<path d="M8940 1256 c0 -43 1 -45 28 -43 23 2 27 7 27 31 0 16 -5 31 -11 33
-7 2 -9 -8 -6 -28 3 -23 1 -30 -7 -25 -7 4 -11 15 -10 24 3 33 -1 52 -11 52
-5 0 -10 -20 -10 -44z"/>
<path d="M7960 1244 c0 -19 5 -34 10 -34 6 0 10 11 10 24 0 14 5 28 10 31 6 4
10 -7 10 -24 0 -17 5 -31 10 -31 6 0 10 11 10 24 0 14 5 28 10 31 6 4 10 -7
10 -24 0 -17 5 -31 11 -31 6 0 9 14 7 32 -3 31 -5 33 -50 34 l-48 2 0 -34z"/>
<path d="M8074 1256 c-7 -28 1 -46 20 -46 21 0 38 27 31 50 -9 28 -43 26 -51
-4z m36 -11 c0 -14 -4 -25 -10 -25 -5 0 -10 11 -10 25 0 14 5 25 10 25 6 0 10
-11 10 -25z"/>
<path d="M8130 1276 c0 -1 5 -17 11 -35 14 -38 34 -40 47 -3 l10 27 1 -27 c1
-41 21 -34 21 7 0 28 -4 35 -19 35 -12 0 -23 -9 -27 -22 l-7 -23 -10 23 c-8
18 -27 31 -27 18z"/>
<path d="M8230 1244 c0 -19 5 -34 10 -34 6 0 10 11 10 24 0 14 5 28 10 31 6 4
10 -7 10 -24 0 -17 5 -31 10 -31 6 0 10 11 10 24 0 14 5 28 10 31 6 4 10 -7
10 -24 0 -17 5 -31 11 -31 6 0 9 14 7 32 -3 31 -5 33 -50 34 l-48 2 0 -34z"/>
<path d="M8344 1256 c-3 -14 -3 -30 1 -35 8 -14 42 -14 51 0 4 8 0 9 -15 4
-12 -4 -21 -2 -21 4 0 6 9 11 21 11 28 0 21 34 -8 38 -17 3 -24 -3 -29 -22z
m36 4 c0 -5 -4 -10 -10 -10 -5 0 -10 5 -10 10 0 6 5 10 10 10 6 0 10 -4 10
-10z"/>
<path d="M8410 1244 c0 -19 5 -34 10 -34 6 0 10 11 10 24 0 14 5 28 10 31 6 4
10 -7 10 -24 0 -17 5 -31 11 -31 6 0 9 14 7 32 -3 28 -7 33 -30 35 -26 2 -28
-1 -28 -33z"/>
<path d="M8526 1272 c-4 -6 3 -8 16 -5 23 6 23 6 -1 -14 -28 -23 -21 -43 15
-43 22 0 25 4 22 33 -2 24 -8 33 -25 35 -11 2 -24 -1 -27 -6z m30 -49 c-10
-10 -19 5 -10 18 6 11 8 11 12 0 2 -7 1 -15 -2 -18z"/>
<path d="M8595 1261 c-3 -10 -3 -26 1 -35 7 -18 39 -22 50 -5 4 8 0 9 -15 4
-18 -5 -21 -2 -21 20 0 22 3 25 21 20 15 -5 19 -4 15 4 -11 18 -44 13 -51 -8z"/>
<path d="M8666 1272 c-4 -6 3 -8 16 -5 23 6 23 6 -1 -14 -28 -23 -21 -43 15
-43 22 0 25 4 22 33 -2 24 -8 33 -25 35 -11 2 -24 -1 -27 -6z m30 -49 c-10
-10 -19 5 -10 18 6 11 8 11 12 0 2 -7 1 -15 -2 -18z"/>
<path d="M8734 1256 c-7 -28 1 -46 20 -46 21 0 38 27 31 50 -9 28 -43 26 -51
-4z m36 -11 c0 -14 -4 -25 -10 -25 -5 0 -10 11 -10 25 0 14 5 25 10 25 6 0 10
-11 10 -25z"/>
<path d="M8874 1256 c-7 -28 1 -46 20 -46 21 0 38 27 31 50 -9 28 -43 26 -51
-4z m36 -11 c0 -14 -4 -25 -10 -25 -5 0 -10 11 -10 25 0 14 5 25 10 25 6 0 10
-11 10 -25z"/>
<path d="M9014 1269 c-4 -7 4 -20 17 -31 l24 -19 -24 6 c-16 5 -21 4 -17 -4 9
-14 43 -14 52 0 4 7 -4 20 -17 31 l-24 19 24 -6 c16 -5 21 -4 17 4 -9 14 -43
14 -52 0z"/>
<path d="M9084 1256 c-3 -14 -3 -30 1 -35 8 -14 42 -14 51 0 4 8 0 9 -15 4
-12 -4 -21 -2 -21 4 0 6 9 11 21 11 28 0 21 34 -8 38 -17 3 -24 -3 -29 -22z
m36 4 c0 -5 -4 -10 -10 -10 -5 0 -10 5 -10 10 0 6 5 10 10 10 6 0 10 -4 10
-10z"/>
<path d="M9150 1245 c0 -19 5 -35 10 -35 6 0 10 14 10 30 0 17 5 30 11 30 5 0
15 -13 20 -30 13 -35 35 -39 45 -7 7 24 22 37 43 37 8 0 4 -7 -9 -18 -27 -22
-19 -42 16 -42 22 0 25 4 22 33 -3 29 -6 32 -39 33 -29 2 -39 -3 -46 -20 l-10
-21 -7 23 c-5 16 -15 22 -37 22 -27 0 -29 -3 -29 -35z m146 -22 c-10 -10 -19
5 -10 18 6 11 8 11 12 0 2 -7 1 -15 -2 -18z"/>
<path d="M9335 1261 c-3 -10 -3 -26 1 -35 7 -18 39 -22 50 -5 4 8 0 9 -15 4
-18 -5 -21 -2 -21 20 0 22 3 25 21 20 15 -5 19 -4 15 4 -11 18 -44 13 -51 -8z"/>
<path d="M9406 1272 c-4 -6 3 -8 16 -5 23 6 23 6 -1 -14 -28 -23 -21 -43 15
-43 22 0 25 4 22 33 -2 24 -8 33 -25 35 -11 2 -24 -1 -27 -6z m30 -49 c-10
-10 -19 5 -10 18 6 11 8 11 12 0 2 -7 1 -15 -2 -18z"/>
<path d="M9474 1256 c-7 -28 1 -46 20 -46 21 0 38 27 31 50 -9 28 -43 26 -51
-4z m36 -11 c0 -14 -4 -25 -10 -25 -5 0 -10 11 -10 25 0 14 5 25 10 25 6 0 10
-11 10 -25z"/>
<path d="M8818 1193 c12 -2 30 -2 40 0 9 3 -1 5 -23 4 -22 0 -30 -2 -17 -4z"/>
<path d="M8323 1099 c-12 -12 -2 -71 12 -76 9 -3 12 74 3 83 -2 2 -9 -1 -15
-7z"/>
<path d="M7800 1054 c0 -19 5 -34 10 -34 6 0 10 11 10 24 0 14 5 28 10 31 6 4
10 -7 10 -24 0 -17 5 -31 10 -31 6 0 10 11 10 24 0 14 5 28 10 31 6 4 10 -7
10 -24 0 -17 5 -31 11 -31 6 0 9 14 7 32 -3 31 -5 33 -50 34 l-48 2 0 -34z"/>
<path d="M7914 1066 c-7 -28 1 -46 20 -46 21 0 38 27 31 50 -9 28 -43 26 -51
-4z m36 -11 c0 -14 -4 -25 -10 -25 -5 0 -10 11 -10 25 0 14 5 25 10 25 6 0 10
-11 10 -25z"/>
<path d="M7970 1086 c0 -1 5 -17 11 -35 14 -38 34 -40 47 -3 l10 27 1 -27 c1
-41 21 -34 21 7 0 28 -4 35 -19 35 -12 0 -23 -9 -27 -22 l-7 -23 -10 23 c-8
18 -27 31 -27 18z"/>
<path d="M8070 1054 c0 -19 5 -34 10 -34 6 0 10 11 10 24 0 14 5 28 10 31 6 4
10 -7 10 -24 0 -17 5 -31 10 -31 6 0 10 11 10 24 0 14 5 28 10 31 6 4 10 -7
10 -24 0 -17 5 -31 11 -31 6 0 9 14 7 32 -3 31 -5 33 -50 34 l-48 2 0 -34z"/>
<path d="M8184 1066 c-3 -14 -3 -30 1 -35 8 -14 42 -14 51 0 4 8 0 9 -15 4
-12 -4 -21 -2 -21 4 0 6 9 11 21 11 28 0 21 34 -8 38 -17 3 -24 -3 -29 -22z
m36 4 c0 -5 -4 -10 -10 -10 -5 0 -10 5 -10 10 0 6 5 10 10 10 6 0 10 -4 10
-10z"/>
<path d="M8250 1054 c0 -19 5 -34 10 -34 6 0 10 11 10 24 0 14 5 28 10 31 6 4
10 -7 10 -24 0 -17 5 -31 11 -31 6 0 9 14 7 32 -3 28 -7 33 -30 35 -26 2 -28
-1 -28 -33z"/>
<path d="M8366 1082 c-4 -6 3 -8 16 -5 23 6 23 6 -1 -14 -28 -23 -21 -43 15
-43 22 0 25 4 22 33 -2 24 -8 33 -25 35 -11 2 -24 -1 -27 -6z m30 -49 c-10
-10 -19 5 -10 18 6 11 8 11 12 0 2 -7 1 -15 -2 -18z"/>
<path d="M8435 1071 c-3 -10 -3 -26 1 -35 7 -18 39 -22 50 -5 4 8 0 9 -15 4
-18 -5 -21 -2 -21 20 0 22 3 25 21 20 15 -5 19 -4 15 4 -11 18 -44 13 -51 -8z"/>
<path d="M8506 1082 c-4 -6 3 -8 16 -5 23 6 23 6 -1 -14 -28 -23 -21 -43 15
-43 22 0 25 4 22 33 -2 24 -8 33 -25 35 -11 2 -24 -1 -27 -6z m30 -49 c-10
-10 -19 5 -10 18 6 11 8 11 12 0 2 -7 1 -15 -2 -18z"/>
<path d="M8574 1066 c-7 -28 1 -46 20 -46 21 0 38 27 31 50 -9 28 -43 26 -51
-4z m36 -11 c0 -14 -4 -25 -10 -25 -5 0 -10 11 -10 25 0 14 5 25 10 25 6 0 10
-11 10 -25z"/>
<path d="M8714 1066 c-7 -28 1 -46 20 -46 21 0 38 27 31 50 -9 28 -43 26 -51
-4z m36 -11 c0 -14 -4 -25 -10 -25 -5 0 -10 11 -10 25 0 14 5 25 10 25 6 0 10
-11 10 -25z"/>
<path d="M8780 1055 c0 -19 5 -35 10 -35 6 0 10 13 10 29 0 16 6 32 13 34 6 3
2 6 -10 6 -20 1 -23 -4 -23 -34z"/>
<path d="M8830 1055 c0 -19 5 -35 10 -35 6 0 10 16 10 35 0 19 -4 35 -10 35
-5 0 -10 -16 -10 -35z"/>
<path d="M8864 1075 c-3 -7 -3 -25 -1 -41 3 -23 9 -29 28 -29 21 0 24 5 27 41
3 39 1 42 -23 42 -15 0 -29 -6 -31 -13z m34 -35 c-1 -21 -6 -30 -17 -29 -9 0
-11 3 -5 5 6 2 8 19 6 36 -3 20 -1 29 6 24 6 -3 10 -20 10 -36z"/>
<path d="M8934 1066 c-3 -14 -3 -30 1 -35 8 -14 42 -14 51 0 4 8 0 9 -15 4
-12 -4 -21 -2 -21 4 0 6 9 11 21 11 28 0 21 34 -8 38 -17 3 -24 -3 -29 -22z
m36 4 c0 -5 -4 -10 -10 -10 -5 0 -10 5 -10 10 0 6 5 10 10 10 6 0 10 -4 10
-10z"/>
<path d="M9000 1054 c0 -19 5 -34 10 -34 6 0 10 11 10 24 0 14 5 28 10 31 6 4
10 -7 10 -24 0 -17 5 -31 10 -31 6 0 10 11 10 24 0 14 5 28 10 31 6 4 10 -7
10 -24 0 -17 5 -31 11 -31 6 0 9 14 7 32 -3 31 -5 33 -50 34 l-48 2 0 -34z"/>
<path d="M2219 1013 c-1 -10 -1 -25 0 -35 1 -9 -3 -20 -10 -24 -8 -5 -10 2 -7
25 3 20 1 30 -6 28 -6 -2 -11 -17 -11 -33 0 -24 4 -29 28 -31 26 -2 27 0 27
43 0 41 -19 65 -21 27z"/>
<path d="M2313 1016 c-14 -7 -23 -20 -23 -33 0 -12 -4 -25 -10 -28 -6 -4 -10
7 -10 24 0 17 -5 31 -11 31 -6 0 -9 -14 -7 -32 3 -28 7 -33 31 -35 24 -2 27 2
28 30 l1 32 7 -29 c9 -45 26 -42 24 5 0 22 -3 41 -5 43 -1 1 -13 -3 -25 -8z"/>
<path d="M2783 1019 c-12 -12 -2 -71 12 -76 9 -3 12 74 3 83 -2 2 -9 -1 -15
-7z"/>
<path d="M2889 1013 c-1 -10 -1 -25 0 -35 1 -9 -3 -20 -10 -24 -8 -5 -10 2 -7
25 3 20 1 30 -6 28 -6 -2 -11 -17 -11 -33 0 -24 4 -29 28 -31 26 -2 27 0 27
43 0 41 -19 65 -21 27z"/>
<path d="M3029 1013 c-1 -10 -1 -25 0 -35 1 -9 -3 -20 -10 -24 -8 -5 -10 2 -7
25 3 20 1 30 -6 28 -6 -2 -11 -17 -11 -33 0 -24 4 -29 28 -31 26 -2 27 0 27
43 0 41 -19 65 -21 27z"/>
<path d="M3341 1017 c-6 -8 -22 -12 -35 -10 -35 7 -43 -16 -15 -39 l24 -19
-24 6 c-16 5 -21 4 -17 -4 9 -14 43 -14 52 0 4 7 -4 20 -17 30 l-24 19 25 -3
c17 -1 27 -9 30 -26 8 -41 25 -34 23 10 -1 47 -6 55 -22 36z"/>
<path d="M1990 964 c0 -24 5 -44 10 -44 10 0 14 19 11 52 -1 9 3 20 10 24 8 5
10 -2 7 -25 -3 -20 -1 -30 6 -28 6 2 11 17 11 33 0 24 -4 29 -27 31 -27 2 -28
0 -28 -43z"/>
<path d="M2060 975 c0 -19 5 -35 10 -35 6 0 10 13 10 29 0 16 6 32 13 34 6 3
2 6 -10 6 -20 1 -23 -4 -23 -34z"/>
<path d="M2114 986 c-7 -28 1 -46 20 -46 21 0 38 27 31 50 -9 28 -43 26 -51
-4z m36 -11 c0 -14 -4 -25 -10 -25 -5 0 -10 11 -10 25 0 14 5 25 10 25 6 0 10
-11 10 -25z"/>
<path d="M2364 986 c-7 -28 1 -46 20 -46 21 0 38 27 31 50 -9 28 -43 26 -51
-4z m36 -11 c0 -14 -4 -25 -10 -25 -5 0 -10 11 -10 25 0 14 5 25 10 25 6 0 10
-11 10 -25z"/>
<path d="M2503 994 c-7 -18 0 -47 13 -51 7 -2 9 8 6 28 -3 23 -1 30 7 25 7 -4
11 -15 10 -24 -3 -33 1 -52 11 -52 6 0 10 20 10 44 0 40 -2 44 -26 44 -14 0
-28 -6 -31 -14z"/>
<path d="M2572 978 c3 -28 7 -33 31 -35 25 -2 27 1 27 33 0 19 -4 34 -10 34
-5 0 -10 -11 -10 -24 0 -14 -4 -28 -10 -31 -6 -4 -10 7 -10 24 0 17 -5 31 -11
31 -6 0 -9 -14 -7 -32z"/>
<path d="M2646 1002 c-4 -6 3 -8 16 -5 23 6 23 6 -1 -14 -28 -23 -21 -43 15
-43 22 0 25 4 22 33 -2 24 -8 33 -25 35 -11 2 -24 -1 -27 -6z m30 -49 c-10
-10 -19 5 -10 18 6 11 8 11 12 0 2 -7 1 -15 -2 -18z"/>
<path d="M2710 974 c0 -19 5 -34 10 -34 6 0 10 11 10 24 0 14 5 28 10 31 6 4
10 -7 10 -24 0 -17 5 -31 11 -31 6 0 9 14 7 32 -3 28 -7 33 -30 35 -26 2 -28
-1 -28 -33z"/>
<path d="M2820 975 c0 -19 5 -35 10 -35 6 0 10 16 10 35 0 19 -4 35 -10 35 -5
0 -10 -16 -10 -35z"/>
<path d="M2926 1002 c-4 -6 3 -8 16 -5 23 6 23 6 -1 -14 -28 -23 -21 -43 15
-43 22 0 25 4 22 33 -2 24 -8 33 -25 35 -11 2 -24 -1 -27 -6z m30 -49 c-10
-10 -19 5 -10 18 6 11 8 11 12 0 2 -7 1 -15 -2 -18z"/>
<path d="M3064 986 c-3 -14 -3 -30 1 -35 8 -14 42 -14 51 0 4 8 0 9 -15 4 -12
-4 -21 -2 -21 4 0 6 9 11 21 11 28 0 21 34 -8 38 -17 3 -24 -3 -29 -22z m36 4
c0 -5 -4 -10 -10 -10 -5 0 -10 5 -10 10 0 6 5 10 10 10 6 0 10 -4 10 -10z"/>
<path d="M3204 986 c-3 -14 -3 -30 1 -35 8 -14 42 -14 51 0 4 8 0 9 -15 4 -12
-4 -21 -2 -21 4 0 6 9 11 21 11 28 0 21 34 -8 38 -17 3 -24 -3 -29 -22z m36 4
c0 -5 -4 -10 -10 -10 -5 0 -10 5 -10 10 0 6 5 10 10 10 6 0 10 -4 10 -10z"/>
<path d="M3384 986 c-7 -28 1 -46 20 -46 21 0 38 27 31 50 -9 28 -43 26 -51
-4z m36 -11 c0 -14 -4 -25 -10 -25 -5 0 -10 11 -10 25 0 14 5 25 10 25 6 0 10
-11 10 -25z"/>
<path d="M3453 994 c-7 -18 0 -47 13 -51 7 -2 9 8 6 28 -3 23 -1 30 7 25 7 -4
11 -15 10 -24 -3 -33 1 -52 11 -52 6 0 10 20 10 44 0 40 -2 44 -26 44 -14 0
-28 -6 -31 -14z"/>
<path d="M3522 978 c3 -28 7 -33 31 -35 25 -2 27 1 27 33 0 19 -4 34 -10 34
-5 0 -10 -11 -10 -24 0 -14 -4 -28 -10 -31 -6 -4 -10 7 -10 24 0 17 -5 31 -11
31 -6 0 -9 -14 -7 -32z"/>
<path d="M3594 986 c-3 -14 -3 -30 1 -35 8 -14 42 -14 51 0 4 8 0 9 -15 4 -12
-4 -21 -2 -21 4 0 6 9 11 21 11 28 0 21 34 -8 38 -17 3 -24 -3 -29 -22z m36 4
c0 -5 -4 -10 -10 -10 -5 0 -10 5 -10 10 0 6 5 10 10 10 6 0 10 -4 10 -10z"/>
<path d="M8658 1003 c12 -2 30 -2 40 0 9 3 -1 5 -23 4 -22 0 -30 -2 -17 -4z"/>
<path d="M2448 923 c12 -2 30 -2 40 0 9 3 -1 5 -23 4 -22 0 -30 -2 -17 -4z"/>
<path d="M3148 923 c12 -2 30 -2 40 0 9 3 -1 5 -23 4 -22 0 -30 -2 -17 -4z"/>
<path d="M8173 909 c-12 -12 -2 -71 12 -76 9 -3 12 74 3 83 -2 2 -9 -1 -15 -7z"/>
<path d="M8599 903 c-1 -10 -1 -25 0 -35 1 -9 -3 -20 -10 -24 -8 -5 -10 2 -7
25 3 20 1 30 -6 28 -6 -2 -11 -17 -11 -33 0 -24 4 -29 28 -31 26 -2 27 0 27
43 0 41 -19 65 -21 27z"/>
<path d="M8703 909 c-12 -12 -2 -71 12 -76 9 -3 12 74 3 83 -2 2 -9 -1 -15 -7z"/>
<path d="M7650 864 c0 -19 5 -34 10 -34 6 0 10 11 10 24 0 14 5 28 10 31 6 4
10 -7 10 -24 0 -17 5 -31 10 -31 6 0 10 11 10 24 0 14 5 28 10 31 6 4 10 -7
10 -24 0 -17 5 -31 11 -31 6 0 9 14 7 32 -3 31 -5 33 -50 34 l-48 2 0 -34z"/>
<path d="M7764 876 c-7 -28 1 -46 20 -46 21 0 38 27 31 50 -9 28 -43 26 -51
-4z m36 -11 c0 -14 -4 -25 -10 -25 -5 0 -10 11 -10 25 0 14 5 25 10 25 6 0 10
-11 10 -25z"/>
<path d="M7820 896 c0 -1 5 -17 11 -35 14 -38 34 -40 47 -3 l10 27 1 -27 c1
-41 21 -34 21 7 0 28 -4 35 -19 35 -12 0 -23 -9 -27 -22 l-7 -23 -10 23 c-8
18 -27 31 -27 18z"/>
<path d="M7920 864 c0 -19 5 -34 10 -34 6 0 10 11 10 24 0 14 5 28 10 31 6 4
10 -7 10 -24 0 -17 5 -31 10 -31 6 0 10 11 10 24 0 14 5 28 10 31 6 4 10 -7
10 -24 0 -17 5 -31 11 -31 6 0 9 14 7 32 -3 31 -5 33 -50 34 l-48 2 0 -34z"/>
<path d="M8034 876 c-3 -14 -3 -30 1 -35 8 -14 42 -14 51 0 4 8 0 9 -15 4 -12
-4 -21 -2 -21 4 0 6 9 11 21 11 28 0 21 34 -8 38 -17 3 -24 -3 -29 -22z m36 4
c0 -5 -4 -10 -10 -10 -5 0 -10 5 -10 10 0 6 5 10 10 10 6 0 10 -4 10 -10z"/>
<path d="M8100 864 c0 -19 5 -34 10 -34 6 0 10 11 10 24 0 14 5 28 10 31 6 4
10 -7 10 -24 0 -17 5 -31 11 -31 6 0 9 14 7 32 -3 28 -7 33 -30 35 -26 2 -28
-1 -28 -33z"/>
<path d="M8216 892 c-4 -6 3 -8 16 -5 23 6 23 6 -1 -14 -28 -23 -21 -43 15
-43 22 0 25 4 22 33 -2 24 -8 33 -25 35 -11 2 -24 -1 -27 -6z m30 -49 c-10
-10 -19 5 -10 18 6 11 8 11 12 0 2 -7 1 -15 -2 -18z"/>
<path d="M8285 881 c-3 -10 -3 -26 1 -35 7 -18 39 -22 50 -5 4 8 0 9 -15 4
-18 -5 -21 -2 -21 20 0 22 3 25 21 20 15 -5 19 -4 15 4 -11 18 -44 13 -51 -8z"/>
<path d="M8356 892 c-4 -6 3 -8 16 -5 23 6 23 6 -1 -14 -28 -23 -21 -43 15
-43 22 0 25 4 22 33 -2 24 -8 33 -25 35 -11 2 -24 -1 -27 -6z m30 -49 c-10
-10 -19 5 -10 18 6 11 8 11 12 0 2 -7 1 -15 -2 -18z"/>
<path d="M8424 876 c-7 -28 1 -46 20 -46 21 0 38 27 31 50 -9 28 -43 26 -51
-4z m36 -11 c0 -14 -4 -25 -10 -25 -5 0 -10 11 -10 25 0 14 5 25 10 25 6 0 10
-11 10 -25z"/>
<path d="M8636 892 c-4 -6 3 -8 16 -5 23 6 23 6 -1 -14 -28 -23 -21 -43 15
-43 22 0 25 4 22 33 -2 24 -8 33 -25 35 -11 2 -24 -1 -27 -6z m30 -49 c-10
-10 -19 5 -10 18 6 11 8 11 12 0 2 -7 1 -15 -2 -18z"/>
<path d="M8746 892 c-4 -6 3 -8 16 -5 23 6 23 6 -1 -14 -28 -23 -21 -43 15
-43 22 0 25 4 22 33 -2 24 -8 33 -25 35 -11 2 -24 -1 -27 -6z m30 -49 c-10
-10 -19 5 -10 18 6 11 8 11 12 0 2 -7 1 -15 -2 -18z"/>
<path d="M2059 823 c-1 -10 -1 -25 0 -35 1 -9 -3 -20 -10 -24 -8 -5 -10 2 -7
25 3 20 1 30 -6 28 -6 -2 -11 -17 -11 -33 0 -24 4 -29 28 -31 26 -2 27 0 27
43 0 41 -19 65 -21 27z"/>
<path d="M2153 826 c-14 -7 -23 -20 -23 -33 0 -12 -4 -25 -10 -28 -6 -4 -10 7
-10 24 0 17 -5 31 -11 31 -6 0 -9 -14 -7 -32 3 -28 7 -33 31 -35 24 -2 27 2
28 30 l1 32 7 -29 c9 -45 26 -42 24 5 0 22 -3 41 -5 43 -1 1 -13 -3 -25 -8z"/>
<path d="M1830 774 c0 -24 5 -44 10 -44 10 0 14 19 11 52 -1 9 3 20 10 24 8 5
10 -2 7 -25 -3 -20 -1 -30 6 -28 6 2 11 17 11 33 0 24 -4 29 -27 31 -27 2 -28
0 -28 -43z"/>
<path d="M1900 785 c0 -19 5 -35 10 -35 6 0 10 13 10 29 0 16 6 32 13 34 6 3
2 6 -10 6 -20 1 -23 -4 -23 -34z"/>
<path d="M1954 796 c-7 -28 1 -46 20 -46 21 0 38 27 31 50 -9 28 -43 26 -51
-4z m36 -11 c0 -14 -4 -25 -10 -25 -5 0 -10 11 -10 25 0 14 5 25 10 25 6 0 10
-11 10 -25z"/>
<path d="M2204 796 c-7 -28 1 -46 20 -46 21 0 38 27 31 50 -9 28 -43 26 -51
-4z m36 -11 c0 -14 -4 -25 -10 -25 -5 0 -10 11 -10 25 0 14 5 25 10 25 6 0 10
-11 10 -25z"/>
<path d="M2340 780 c0 -37 -1 -39 -37 -43 -35 -3 -34 -4 10 -5 49 -2 52 2 48
50 -1 9 3 20 10 24 8 5 10 -2 7 -25 -3 -20 -1 -30 6 -28 6 2 11 17 11 33 0 24
-4 29 -27 31 -26 2 -28 -1 -28 -37z"/>
<path d="M2410 785 c0 -19 5 -35 10 -35 6 0 10 13 10 29 0 16 6 32 13 34 6 3
2 6 -10 6 -20 1 -23 -4 -23 -34z"/>
<path d="M2464 796 c-3 -14 -3 -30 1 -35 8 -14 42 -14 51 0 4 8 0 9 -15 4 -12
-4 -21 -2 -21 4 0 6 9 11 21 11 28 0 21 34 -8 38 -17 3 -24 -3 -29 -22z m36 4
c0 -5 -4 -10 -10 -10 -5 0 -10 5 -10 10 0 6 5 10 10 10 6 0 10 -4 10 -10z"/>
<path d="M2535 801 c-3 -10 -3 -26 1 -35 7 -18 39 -22 50 -5 4 8 0 9 -15 4
-18 -5 -21 -2 -21 20 0 22 3 25 21 20 15 -5 19 -4 15 4 -11 18 -44 13 -51 -8z"/>
<path d="M2604 796 c-7 -28 1 -46 20 -46 21 0 38 27 31 50 -9 28 -43 26 -51
-4z m36 -11 c0 -14 -4 -25 -10 -25 -5 0 -10 11 -10 25 0 14 5 25 10 25 6 0 10
-11 10 -25z"/>
<path d="M8508 813 c12 -2 30 -2 40 0 9 3 -1 5 -23 4 -22 0 -30 -2 -17 -4z"/>
<path d="M8023 719 c-12 -12 -2 -71 12 -76 9 -3 12 74 3 83 -2 2 -9 -1 -15 -7z"/>
<path d="M8693 719 c-12 -12 -2 -71 12 -76 9 -3 12 74 3 83 -2 2 -9 -1 -15 -7z"/>
<path d="M8799 713 c-1 -10 -1 -25 0 -35 1 -9 -3 -20 -10 -24 -8 -5 -10 2 -7
25 3 20 1 30 -6 28 -6 -2 -11 -17 -11 -33 0 -24 4 -29 28 -31 26 -2 27 0 27
43 0 41 -19 65 -21 27z"/>
<path d="M8939 713 c-1 -10 -1 -25 0 -35 1 -9 -3 -20 -10 -24 -8 -5 -10 2 -7
25 3 20 1 30 -6 28 -6 -2 -11 -17 -11 -33 0 -24 4 -29 28 -31 26 -2 27 0 27
43 0 41 -19 65 -21 27z"/>
<path d="M7500 674 c0 -19 5 -34 10 -34 6 0 10 11 10 24 0 14 5 28 10 31 6 4
10 -7 10 -24 0 -17 5 -31 10 -31 6 0 10 11 10 24 0 14 5 28 10 31 6 4 10 -7
10 -24 0 -17 5 -31 11 -31 6 0 9 14 7 32 -3 31 -5 33 -50 34 l-48 2 0 -34z"/>
<path d="M7614 686 c-7 -28 1 -46 20 -46 21 0 38 27 31 50 -9 28 -43 26 -51
-4z m36 -11 c0 -14 -4 -25 -10 -25 -5 0 -10 11 -10 25 0 14 5 25 10 25 6 0 10
-11 10 -25z"/>
<path d="M7670 706 c0 -1 5 -17 11 -35 14 -38 34 -40 47 -3 l10 27 1 -27 c1
-41 21 -34 21 7 0 28 -4 35 -19 35 -12 0 -23 -9 -27 -22 l-7 -23 -10 23 c-8
18 -27 31 -27 18z"/>
<path d="M7770 674 c0 -19 5 -34 10 -34 6 0 10 11 10 24 0 14 5 28 10 31 6 4
10 -7 10 -24 0 -17 5 -31 10 -31 6 0 10 11 10 24 0 14 5 28 10 31 6 4 10 -7
10 -24 0 -17 5 -31 11 -31 6 0 9 14 7 32 -3 31 -5 33 -50 34 l-48 2 0 -34z"/>
<path d="M7884 686 c-3 -14 -3 -30 1 -35 8 -14 42 -14 51 0 4 8 0 9 -15 4 -12
-4 -21 -2 -21 4 0 6 9 11 21 11 28 0 21 34 -8 38 -17 3 -24 -3 -29 -22z m36 4
c0 -5 -4 -10 -10 -10 -5 0 -10 5 -10 10 0 6 5 10 10 10 6 0 10 -4 10 -10z"/>
<path d="M7950 674 c0 -19 5 -34 10 -34 6 0 10 11 10 24 0 14 5 28 10 31 6 4
10 -7 10 -24 0 -17 5 -31 11 -31 6 0 9 14 7 32 -3 28 -7 33 -30 35 -26 2 -28
-1 -28 -33z"/>
<path d="M8066 702 c-4 -6 3 -8 16 -5 23 6 23 6 -1 -14 -28 -23 -21 -43 15
-43 22 0 25 4 22 33 -2 24 -8 33 -25 35 -11 2 -24 -1 -27 -6z m30 -49 c-10
-10 -19 5 -10 18 6 11 8 11 12 0 2 -7 1 -15 -2 -18z"/>
<path d="M8135 691 c-3 -10 -3 -26 1 -35 7 -18 39 -22 50 -5 4 8 0 9 -15 4
-18 -5 -21 -2 -21 20 0 22 3 25 21 20 15 -5 19 -4 15 4 -11 18 -44 13 -51 -8z"/>
<path d="M8206 702 c-4 -6 3 -8 16 -5 23 6 23 6 -1 -14 -28 -23 -21 -43 15
-43 22 0 25 4 22 33 -2 24 -8 33 -25 35 -11 2 -24 -1 -27 -6z m30 -49 c-10
-10 -19 5 -10 18 6 11 8 11 12 0 2 -7 1 -15 -2 -18z"/>
<path d="M8274 686 c-7 -28 1 -46 20 -46 21 0 38 27 31 50 -9 28 -43 26 -51
-4z m36 -11 c0 -14 -4 -25 -10 -25 -5 0 -10 11 -10 25 0 14 5 25 10 25 6 0 10
-11 10 -25z"/>
<path d="M8413 694 c-7 -18 0 -47 13 -51 7 -2 9 8 6 28 -3 23 -1 30 7 25 7 -4
11 -15 10 -24 -3 -33 1 -52 11 -52 6 0 10 20 10 44 0 40 -2 44 -26 44 -14 0
-28 -6 -31 -14z"/>
<path d="M8482 678 c3 -28 7 -33 31 -35 25 -2 27 1 27 33 0 19 -4 34 -10 34
-5 0 -10 -11 -10 -24 0 -14 -4 -28 -10 -31 -6 -4 -10 7 -10 24 0 17 -5 31 -11
31 -6 0 -9 -14 -7 -32z"/>
<path d="M8556 702 c-4 -6 3 -8 16 -5 23 6 23 6 -1 -14 -28 -23 -21 -43 15
-43 22 0 25 4 22 33 -2 24 -8 33 -25 35 -11 2 -24 -1 -27 -6z m30 -49 c-10
-10 -19 5 -10 18 6 11 8 11 12 0 2 -7 1 -15 -2 -18z"/>
<path d="M8620 674 c0 -19 5 -34 10 -34 6 0 10 11 10 24 0 14 5 28 10 31 6 4
10 -7 10 -24 0 -17 5 -31 11 -31 6 0 9 14 7 32 -3 28 -7 33 -30 35 -26 2 -28
-1 -28 -33z"/>
<path d="M8730 675 c0 -19 5 -35 10 -35 6 0 10 16 10 35 0 19 -4 35 -10 35 -5
0 -10 -16 -10 -35z"/>
<path d="M8836 702 c-4 -6 3 -8 16 -5 23 6 23 6 -1 -14 -28 -23 -21 -43 15
-43 22 0 25 4 22 33 -2 24 -8 33 -25 35 -11 2 -24 -1 -27 -6z m30 -49 c-10
-10 -19 5 -10 18 6 11 8 11 12 0 2 -7 1 -15 -2 -18z"/>
<path d="M8974 686 c-3 -14 -3 -30 1 -35 8 -14 42 -14 51 0 4 8 0 9 -15 4 -12
-4 -21 -2 -21 4 0 6 9 11 21 11 28 0 21 34 -8 38 -17 3 -24 -3 -29 -22z m36 4
c0 -5 -4 -10 -10 -10 -5 0 -10 5 -10 10 0 6 5 10 10 10 6 0 10 -4 10 -10z"/>
<path d="M1909 633 c-1 -10 -1 -25 0 -35 1 -9 -3 -20 -10 -24 -8 -5 -10 2 -7
25 3 20 1 30 -6 28 -6 -2 -11 -17 -11 -33 0 -24 4 -29 28 -31 26 -2 27 0 27
43 0 41 -19 65 -21 27z"/>
<path d="M2003 636 c-14 -7 -23 -20 -23 -33 0 -12 -4 -25 -10 -28 -6 -4 -10 7
-10 24 0 17 -5 31 -11 31 -6 0 -9 -14 -7 -32 3 -28 7 -33 31 -35 24 -2 27 2
28 30 l1 32 7 -29 c9 -45 26 -42 24 5 0 22 -3 41 -5 43 -1 1 -13 -3 -25 -8z"/>
<path d="M2229 633 c-1 -10 -1 -25 0 -35 1 -9 -3 -20 -10 -24 -8 -5 -10 2 -7
25 3 20 1 30 -6 28 -6 -2 -11 -17 -11 -33 0 -24 4 -29 28 -31 26 -2 27 0 27
43 0 41 -19 65 -21 27z"/>
<path d="M1680 584 c0 -24 5 -44 10 -44 10 0 14 19 11 52 -1 9 3 20 10 24 8 5
10 -2 7 -25 -3 -20 -1 -30 6 -28 6 2 11 17 11 33 0 24 -4 29 -27 31 -27 2 -28
0 -28 -43z"/>
<path d="M1750 595 c0 -19 5 -35 10 -35 6 0 10 13 10 29 0 16 6 32 13 34 6 3
2 6 -10 6 -20 1 -23 -4 -23 -34z"/>
<path d="M1804 606 c-7 -28 1 -46 20 -46 21 0 38 27 31 50 -9 28 -43 26 -51
-4z m36 -11 c0 -14 -4 -25 -10 -25 -5 0 -10 11 -10 25 0 14 5 25 10 25 6 0 10
-11 10 -25z"/>
<path d="M2054 606 c-7 -28 1 -46 20 -46 21 0 38 27 31 50 -9 28 -43 26 -51
-4z m36 -11 c0 -14 -4 -25 -10 -25 -5 0 -10 11 -10 25 0 14 5 25 10 25 6 0 10
-11 10 -25z"/>
<path d="M2264 606 c-3 -14 -3 -30 1 -35 8 -14 42 -14 51 0 4 8 0 9 -15 4 -12
-4 -21 -2 -21 4 0 6 9 11 21 11 28 0 21 34 -8 38 -17 3 -24 -3 -29 -22z m36 4
c0 -5 -4 -10 -10 -10 -5 0 -10 5 -10 10 0 6 5 10 10 10 6 0 10 -4 10 -10z"/>
<path d="M2334 619 c-4 -7 4 -20 17 -31 l24 -19 -24 6 c-16 5 -21 4 -17 -4 9
-14 43 -14 52 0 4 7 -4 20 -17 31 l-24 19 24 -6 c16 -5 21 -4 17 4 -9 14 -43
14 -52 0z"/>
<path d="M2405 611 c-3 -10 -3 -26 1 -35 7 -18 39 -22 50 -5 4 8 0 9 -15 4
-18 -5 -21 -2 -21 20 0 22 3 25 21 20 15 -5 19 -4 15 4 -11 18 -44 13 -51 -8z"/>
<path d="M2470 595 c0 -19 5 -35 10 -35 6 0 10 13 10 29 0 16 6 32 13 34 6 3
2 6 -10 6 -20 1 -23 -4 -23 -34z"/>
<path d="M2520 595 c0 -19 5 -35 10 -35 6 0 10 16 10 35 0 19 -4 35 -10 35 -5
0 -10 -16 -10 -35z"/>
<path d="M2555 611 c-3 -10 -3 -26 1 -35 7 -18 39 -22 50 -5 4 8 0 9 -15 4
-18 -5 -21 -2 -21 20 0 22 3 25 21 20 15 -5 19 -4 15 4 -11 18 -44 13 -51 -8z"/>
<path d="M2626 622 c-4 -6 3 -8 16 -5 23 6 23 6 -1 -14 -28 -23 -21 -43 15
-43 22 0 25 4 22 33 -2 24 -8 33 -25 35 -11 2 -24 -1 -27 -6z m30 -49 c-10
-10 -19 5 -10 18 6 11 8 11 12 0 2 -7 1 -15 -2 -18z"/>
<path d="M2694 606 c-7 -28 1 -46 20 -46 21 0 38 27 31 50 -9 28 -43 26 -51
-4z m36 -11 c0 -14 -4 -25 -10 -25 -5 0 -10 11 -10 25 0 14 5 25 10 25 6 0 10
-11 10 -25z"/>
<path d="M8358 623 c12 -2 30 -2 40 0 9 3 -1 5 -23 4 -22 0 -30 -2 -17 -4z"/>
<path d="M2138 543 c12 -2 30 -2 40 0 9 3 -1 5 -23 4 -22 0 -30 -2 -17 -4z"/>
<path d="M7883 529 c-12 -12 -2 -71 12 -76 9 -3 12 74 3 83 -2 2 -9 -1 -15 -7z"/>
<path d="M8273 529 c-12 -12 -2 -71 12 -76 9 -3 12 74 3 83 -2 2 -9 -1 -15 -7z"/>
<path d="M7360 484 c0 -19 5 -34 10 -34 6 0 10 11 10 24 0 14 5 28 10 31 6 4
10 -7 10 -24 0 -17 5 -31 10 -31 6 0 10 11 10 24 0 14 5 28 10 31 6 4 10 -7
10 -24 0 -17 5 -31 11 -31 6 0 9 14 7 32 -3 31 -5 33 -50 34 l-48 2 0 -34z"/>
<path d="M7474 496 c-7 -28 1 -46 20 -46 21 0 38 27 31 50 -9 28 -43 26 -51
-4z m36 -11 c0 -14 -4 -25 -10 -25 -5 0 -10 11 -10 25 0 14 5 25 10 25 6 0 10
-11 10 -25z"/>
<path d="M7530 516 c0 -1 5 -17 11 -35 14 -38 34 -40 47 -3 l10 27 1 -27 c1
-41 21 -34 21 7 0 28 -4 35 -19 35 -12 0 -23 -9 -27 -22 l-7 -23 -10 23 c-8
18 -27 31 -27 18z"/>
<path d="M7630 484 c0 -19 5 -34 10 -34 6 0 10 11 10 24 0 14 5 28 10 31 6 4
10 -7 10 -24 0 -17 5 -31 10 -31 6 0 10 11 10 24 0 14 5 28 10 31 6 4 10 -7
10 -24 0 -17 5 -31 11 -31 6 0 9 14 7 32 -3 31 -5 33 -50 34 l-48 2 0 -34z"/>
<path d="M7744 496 c-3 -14 -3 -30 1 -35 8 -14 42 -14 51 0 4 8 0 9 -15 4 -12
-4 -21 -2 -21 4 0 6 9 11 21 11 28 0 21 34 -8 38 -17 3 -24 -3 -29 -22z m36 4
c0 -5 -4 -10 -10 -10 -5 0 -10 5 -10 10 0 6 5 10 10 10 6 0 10 -4 10 -10z"/>
<path d="M7810 484 c0 -19 5 -34 10 -34 6 0 10 11 10 24 0 14 5 28 10 31 6 4
10 -7 10 -24 0 -17 5 -31 11 -31 6 0 9 14 7 32 -3 28 -7 33 -30 35 -26 2 -28
-1 -28 -33z"/>
<path d="M7926 512 c-4 -6 3 -8 16 -5 23 6 23 6 -1 -14 -28 -23 -21 -43 15
-43 22 0 25 4 22 33 -2 24 -8 33 -25 35 -11 2 -24 -1 -27 -6z m30 -49 c-10
-10 -19 5 -10 18 6 11 8 11 12 0 2 -7 1 -15 -2 -18z"/>
<path d="M7995 501 c-3 -10 -3 -26 1 -35 7 -18 39 -22 50 -5 4 8 0 9 -15 4
-18 -5 -21 -2 -21 20 0 22 3 25 21 20 15 -5 19 -4 15 4 -11 18 -44 13 -51 -8z"/>
<path d="M8066 512 c-4 -6 3 -8 16 -5 23 6 23 6 -1 -14 -28 -23 -21 -43 15
-43 22 0 25 4 22 33 -2 24 -8 33 -25 35 -11 2 -24 -1 -27 -6z m30 -49 c-10
-10 -19 5 -10 18 6 11 8 11 12 0 2 -7 1 -15 -2 -18z"/>
<path d="M8134 496 c-7 -28 1 -46 20 -46 21 0 38 27 31 50 -9 28 -43 26 -51
-4z m36 -11 c0 -14 -4 -25 -10 -25 -5 0 -10 11 -10 25 0 14 5 25 10 25 6 0 10
-11 10 -25z"/>
<path d="M8310 485 c0 -19 5 -35 10 -35 6 0 10 16 10 35 0 19 -4 35 -10 35 -5
0 -10 -16 -10 -35z"/>
<path d="M8340 474 c0 -24 5 -44 10 -44 10 0 14 19 11 52 -1 9 3 20 10 24 8 5
10 -2 7 -25 -3 -20 -1 -30 6 -28 6 2 11 17 11 33 0 24 -4 29 -27 31 -27 2 -28
0 -28 -43z"/>
<path d="M8414 496 c-7 -28 1 -46 20 -46 21 0 38 27 31 50 -9 28 -43 26 -51
-4z m36 -11 c0 -14 -4 -25 -10 -25 -5 0 -10 11 -10 25 0 14 5 25 10 25 6 0 10
-11 10 -25z"/>
<path d="M1749 443 c-1 -10 -1 -25 0 -35 1 -9 -3 -20 -10 -24 -8 -5 -10 2 -7
25 3 20 1 30 -6 28 -6 -2 -11 -17 -11 -33 0 -24 4 -29 28 -31 26 -2 27 0 27
43 0 41 -19 65 -21 27z"/>
<path d="M1843 446 c-14 -7 -23 -20 -23 -33 0 -12 -4 -25 -10 -28 -6 -4 -10 7
-10 24 0 17 -5 31 -11 31 -6 0 -9 -14 -7 -32 3 -28 7 -33 31 -35 24 -2 27 2
28 30 l1 32 7 -29 c9 -45 26 -42 24 5 0 22 -3 41 -5 43 -1 1 -13 -3 -25 -8z"/>
<path d="M1520 394 c0 -24 5 -44 10 -44 10 0 14 19 11 52 -1 9 3 20 10 24 8 5
10 -2 7 -25 -3 -20 -1 -30 6 -28 6 2 11 17 11 33 0 24 -4 29 -27 31 -27 2 -28
0 -28 -43z"/>
<path d="M1590 405 c0 -19 5 -35 10 -35 6 0 10 13 10 29 0 16 6 32 13 34 6 3
2 6 -10 6 -20 1 -23 -4 -23 -34z"/>
<path d="M1644 416 c-7 -28 1 -46 20 -46 21 0 38 27 31 50 -9 28 -43 26 -51
-4z m36 -11 c0 -14 -4 -25 -10 -25 -5 0 -10 11 -10 25 0 14 5 25 10 25 6 0 10
-11 10 -25z"/>
<path d="M1894 416 c-7 -28 1 -46 20 -46 21 0 38 27 31 50 -9 28 -43 26 -51
-4z m36 -11 c0 -14 -4 -25 -10 -25 -5 0 -10 11 -10 25 0 14 5 25 10 25 6 0 10
-11 10 -25z"/>
<path d="M2030 404 c0 -19 5 -34 10 -34 6 0 10 11 10 24 0 14 5 28 10 31 6 4
10 -7 10 -24 0 -17 5 -31 11 -31 6 0 9 14 7 32 -3 28 -7 33 -30 35 -26 2 -28
-1 -28 -33z"/>
<path d="M2104 416 c-7 -28 1 -46 20 -46 21 0 38 27 31 50 -9 28 -43 26 -51
-4z m36 -11 c0 -14 -4 -25 -10 -25 -5 0 -10 11 -10 25 0 14 5 25 10 25 6 0 10
-11 10 -25z"/>
<path d="M2170 404 c0 -19 5 -34 10 -34 6 0 10 11 10 24 0 14 5 28 10 31 6 4
10 -7 10 -24 0 -17 5 -31 10 -31 6 0 10 11 10 24 0 14 5 28 10 31 6 4 10 -7
10 -24 0 -17 5 -31 11 -31 6 0 9 14 7 32 -3 31 -5 33 -50 34 l-48 2 0 -34z"/>
<path d="M2284 416 c-3 -14 -3 -30 1 -35 8 -14 42 -14 51 0 4 8 0 9 -15 4 -12
-4 -21 -2 -21 4 0 6 9 11 21 11 28 0 21 34 -8 38 -17 3 -24 -3 -29 -22z m36 4
c0 -5 -4 -10 -10 -10 -5 0 -10 5 -10 10 0 6 5 10 10 10 6 0 10 -4 10 -10z"/>
<path d="M8218 433 c12 -2 30 -2 40 0 9 3 -1 5 -23 4 -22 0 -30 -2 -17 -4z"/>
<path d="M1978 353 c12 -2 30 -2 40 0 9 3 -1 5 -23 4 -22 0 -30 -2 -17 -4z"/>
<path d="M7279 333 c-1 -10 -1 -25 0 -35 1 -9 -3 -20 -10 -24 -8 -5 -10 2 -7
25 3 20 1 30 -6 28 -6 -2 -11 -17 -11 -33 0 -24 4 -29 28 -31 26 -2 27 0 27
43 0 41 -19 65 -21 27z"/>
<path d="M7609 333 c-1 -10 -1 -25 0 -35 1 -9 -3 -20 -10 -24 -8 -5 -10 2 -7
25 3 20 1 30 -6 28 -6 -2 -11 -17 -11 -33 0 -24 4 -29 28 -31 26 -2 27 0 27
43 0 41 -19 65 -21 27z"/>
<path d="M7703 336 c-14 -7 -23 -20 -23 -33 0 -12 -4 -25 -10 -28 -6 -4 -10 7
-10 24 0 17 -5 31 -11 31 -6 0 -9 -14 -7 -32 3 -28 7 -33 31 -35 24 -2 27 2
28 30 l1 32 7 -29 c9 -45 26 -42 24 5 0 22 -3 41 -5 43 -1 1 -13 -3 -25 -8z"/>
<path d="M7210 295 c0 -19 5 -35 10 -35 6 0 10 16 10 35 0 19 -4 35 -10 35 -5
0 -10 -16 -10 -35z"/>
<path d="M7380 290 c0 -37 -1 -39 -37 -43 -35 -3 -34 -4 10 -5 49 -2 52 2 48
50 -1 9 3 20 10 24 8 5 10 -2 7 -25 -3 -20 -1 -30 6 -28 6 2 11 17 11 33 0 24
-4 29 -27 31 -26 2 -28 -1 -28 -37z"/>
<path d="M7450 295 c0 -19 5 -35 10 -35 6 0 10 13 10 29 0 16 6 32 13 34 6 3
2 6 -10 6 -20 1 -23 -4 -23 -34z"/>
<path d="M7504 306 c-7 -28 1 -46 20 -46 21 0 38 27 31 50 -9 28 -43 26 -51
-4z m36 -11 c0 -14 -4 -25 -10 -25 -5 0 -10 11 -10 25 0 14 5 25 10 25 6 0 10
-11 10 -25z"/>
<path d="M7754 306 c-7 -28 1 -46 20 -46 21 0 38 27 31 50 -9 28 -43 26 -51
-4z m36 -11 c0 -14 -4 -25 -10 -25 -5 0 -10 11 -10 25 0 14 5 25 10 25 6 0 10
-11 10 -25z"/>
<path d="M1439 253 c-1 -10 -1 -25 0 -35 1 -9 -3 -20 -10 -24 -8 -5 -10 2 -7
25 3 20 1 30 -6 28 -6 -2 -11 -17 -11 -33 0 -24 4 -29 28 -31 26 -2 27 0 27
43 0 41 -19 65 -21 27z"/>
<path d="M1769 253 c-1 -10 -1 -25 0 -35 1 -9 -3 -20 -10 -24 -8 -5 -10 2 -7
25 3 20 1 30 -6 28 -6 -2 -11 -17 -11 -33 0 -24 4 -29 28 -31 26 -2 27 0 27
43 0 41 -19 65 -21 27z"/>
<path d="M1863 256 c-14 -7 -23 -20 -23 -33 0 -12 -4 -25 -10 -28 -6 -4 -10 7
-10 24 0 17 -5 31 -11 31 -6 0 -9 -14 -7 -32 3 -28 7 -33 31 -35 24 -2 27 2
28 30 l1 32 7 -29 c9 -45 26 -42 24 5 0 22 -3 41 -5 43 -1 1 -13 -3 -25 -8z"/>
<path d="M1370 215 c0 -19 5 -35 10 -35 6 0 10 16 10 35 0 19 -4 35 -10 35 -5
0 -10 -16 -10 -35z"/>
<path d="M1540 210 c0 -37 -1 -39 -37 -43 -35 -3 -34 -4 10 -5 49 -2 52 2 48
50 -1 9 3 20 10 24 8 5 10 -2 7 -25 -3 -20 -1 -30 6 -28 6 2 11 17 11 33 0 24
-4 29 -27 31 -26 2 -28 -1 -28 -37z"/>
<path d="M1610 215 c0 -19 5 -35 10 -35 6 0 10 13 10 29 0 16 6 32 13 34 6 3
2 6 -10 6 -20 1 -23 -4 -23 -34z"/>
<path d="M1664 226 c-7 -28 1 -46 20 -46 21 0 38 27 31 50 -9 28 -43 26 -51
-4z m36 -11 c0 -14 -4 -25 -10 -25 -5 0 -10 11 -10 25 0 14 5 25 10 25 6 0 10
-11 10 -25z"/>
<path d="M1914 226 c-7 -28 1 -46 20 -46 21 0 38 27 31 50 -9 28 -43 26 -51
-4z m36 -11 c0 -14 -4 -25 -10 -25 -5 0 -10 11 -10 25 0 14 5 25 10 25 6 0 10
-11 10 -25z"/>
<path d="M7139 143 c-1 -10 -1 -25 0 -35 1 -9 -3 -20 -10 -24 -8 -5 -10 2 -7
25 3 20 1 30 -6 28 -6 -2 -11 -17 -11 -33 0 -24 4 -29 28 -31 26 -2 27 0 27
43 0 41 -19 65 -21 27z"/>
<path d="M7763 149 c-12 -12 -2 -71 12 -76 9 -3 12 74 3 83 -2 2 -9 -1 -15 -7z"/>
<path d="M7070 105 c0 -19 5 -35 10 -35 6 0 10 16 10 35 0 19 -4 35 -10 35 -5
0 -10 -16 -10 -35z"/>
<path d="M7240 104 c0 -19 5 -34 10 -34 6 0 10 11 10 24 0 14 5 28 10 31 6 4
10 -7 10 -24 0 -17 5 -31 10 -31 6 0 10 11 10 24 0 14 5 28 10 31 6 4 10 -7
10 -24 0 -17 5 -31 11 -31 6 0 9 14 7 32 -3 31 -5 33 -50 34 l-48 2 0 -34z"/>
<path d="M7354 116 c-7 -28 1 -46 20 -46 21 0 38 27 31 50 -9 28 -43 26 -51
-4z m36 -11 c0 -14 -4 -25 -10 -25 -5 0 -10 11 -10 25 0 14 5 25 10 25 6 0 10
-11 10 -25z"/>
<path d="M7410 136 c0 -1 5 -17 11 -35 14 -38 34 -40 47 -3 l10 27 1 -27 c1
-41 21 -34 21 7 0 28 -4 35 -19 35 -12 0 -23 -9 -27 -22 l-7 -23 -10 23 c-8
18 -27 31 -27 18z"/>
<path d="M7510 104 c0 -19 5 -34 10 -34 6 0 10 11 10 24 0 14 5 28 10 31 6 4
10 -7 10 -24 0 -17 5 -31 10 -31 6 0 10 11 10 24 0 14 5 28 10 31 6 4 10 -7
10 -24 0 -17 5 -31 11 -31 6 0 9 14 7 32 -3 31 -5 33 -50 34 l-48 2 0 -34z"/>
<path d="M7624 116 c-3 -14 -3 -30 1 -35 8 -14 42 -14 51 0 4 8 0 9 -15 4 -12
-4 -21 -2 -21 4 0 6 9 11 21 11 28 0 21 34 -8 38 -17 3 -24 -3 -29 -22z m36 4
c0 -5 -4 -10 -10 -10 -5 0 -10 5 -10 10 0 6 5 10 10 10 6 0 10 -4 10 -10z"/>
<path d="M7690 104 c0 -19 5 -34 10 -34 6 0 10 11 10 24 0 14 5 28 10 31 6 4
10 -7 10 -24 0 -17 5 -31 11 -31 6 0 9 14 7 32 -3 28 -7 33 -30 35 -26 2 -28
-1 -28 -33z"/>
<path d="M7806 132 c-4 -6 3 -8 16 -5 23 6 23 6 -1 -14 -28 -23 -21 -43 15
-43 22 0 25 4 22 33 -2 24 -8 33 -25 35 -11 2 -24 -1 -27 -6z m30 -49 c-10
-10 -19 5 -10 18 6 11 8 11 12 0 2 -7 1 -15 -2 -18z"/>
<path d="M7875 121 c-3 -10 -3 -26 1 -35 7 -18 39 -22 50 -5 4 8 0 9 -15 4
-18 -5 -21 -2 -21 20 0 22 3 25 21 20 15 -5 19 -4 15 4 -11 18 -44 13 -51 -8z"/>
<path d="M7946 132 c-4 -6 3 -8 16 -5 23 6 23 6 -1 -14 -28 -23 -21 -43 15
-43 22 0 25 4 22 33 -2 24 -8 33 -25 35 -11 2 -24 -1 -27 -6z m30 -49 c-10
-10 -19 5 -10 18 6 11 8 11 12 0 2 -7 1 -15 -2 -18z"/>
<path d="M8014 116 c-7 -28 1 -46 20 -46 21 0 38 27 31 50 -9 28 -43 26 -51
-4z m36 -11 c0 -14 -4 -25 -10 -25 -5 0 -10 11 -10 25 0 14 5 25 10 25 6 0 10
-11 10 -25z"/>
<path d="M7188 53 c12 -2 30 -2 40 0 9 3 -1 5 -23 4 -22 0 -30 -2 -17 -4z"/>
</g>
</svg>
